%TF.GenerationSoftware,KiCad,Pcbnew,10.0.6*%
%TF.CreationDate,2026-09-24T13:22:48+02:00*%
%TF.ProjectId,keith,6b656974-682e-46b6-9963-61645f706362,rev?*%
%TF.SameCoordinates,Original*%
%TF.FileFunction,Copper,L4,Bot*%
%TF.FilePolarity,Positive*%
%FSLAX46Y46*%
G04 Gerber Fmt 4.6, Leading zero omitted, Abs format (unit mm)*
G04 Created by KiCad (PCBNEW 10.0.6) date 2026-09-24 13:22:48*
%MOMM*%
%LPD*%
G01*
G04 APERTURE LIST*
%TA.AperFunction,ComponentPad*%
%ADD10R,1.000000X1.000000*%
%TD*%
%TA.AperFunction,ComponentPad*%
%ADD11C,1.000000*%
%TD*%
%TA.AperFunction,ComponentPad*%
%ADD12C,0.600000*%
%TD*%
%TA.AperFunction,ComponentPad*%
%ADD13C,2.300000*%
%TD*%
%TA.AperFunction,ViaPad*%
%ADD14C,0.600000*%
%TD*%
%TA.AperFunction,Conductor*%
%ADD15C,0.200000*%
%TD*%
G04 APERTURE END LIST*
D10*
%TO.P,J1,1,Pin_1_1*%
%TO.N,Net-(J1-Pin_1)*%
X45000000Y-36000000D03*
D11*
%TO.P,J1,2,Pin_2_2*%
%TO.N,GND*%
X45000000Y-37270000D03*
%TD*%
D12*
%TO.P,L1,0,0_0*%
%TO.N,unconnected-(L1-Pad0)*%
X80000000Y-43340000D03*
%TD*%
D13*
%TO.P,SW1,1,1_1*%
%TO.N,GND*%
X76190000Y-47460000D03*
%TO.P,SW1,2,2_2*%
%TO.N,Net-(U1-D0)*%
X82540000Y-44920000D03*
%TD*%
%TO.P,SW4,1,1_1*%
%TO.N,GND*%
X133340000Y-47460000D03*
%TO.P,SW4,2,2_2*%
%TO.N,Net-(U1-D3)*%
X139690000Y-44920000D03*
%TD*%
%TO.P,SW3,1,1_1*%
%TO.N,GND*%
X114290000Y-47460000D03*
%TO.P,SW3,2,2_2*%
%TO.N,Net-(U1-D2)*%
X120640000Y-44920000D03*
%TD*%
D12*
%TO.P,L4,0,0_0*%
%TO.N,unconnected-(L4-Pad0)*%
X137150000Y-43340000D03*
%TD*%
D13*
%TO.P,SW2,1,1_1*%
%TO.N,GND*%
X95240000Y-47460000D03*
%TO.P,SW2,2,2_2*%
%TO.N,Net-(U1-D1)*%
X101590000Y-44920000D03*
%TD*%
D12*
%TO.P,L2,0,0_0*%
%TO.N,unconnected-(L2-Pad0)*%
X99050000Y-43340000D03*
%TD*%
%TO.P,L3,0,0_0*%
%TO.N,unconnected-(L3-Pad0)*%
X118100000Y-43340000D03*
%TD*%
D14*
%TO.N,Net-(U2-COM)*%
X119000000Y-39200000D03*
X80920000Y-39200000D03*
X99970000Y-39200000D03*
X138070000Y-39200000D03*
X107500000Y-33000000D03*
%TO.N,Net-(U2-IN2)*%
X113500000Y-31000000D03*
X112500000Y-29497951D03*
%TO.N,GND*%
X51718750Y-39281250D03*
X63750000Y-35500000D03*
X110250000Y-33250000D03*
X54000000Y-53000000D03*
X108600000Y-34500000D03*
X112000000Y-38000000D03*
X52468750Y-40031250D03*
X52250000Y-35000000D03*
%TO.N,Net-(U1-D0)*%
X50000000Y-55000000D03*
%TO.N,Net-(U1-D1)*%
X53000000Y-55000000D03*
%TO.N,Net-(U1-D2)*%
X60000000Y-55000000D03*
%TO.N,Net-(U1-D3)*%
X61000000Y-56000000D03*
%TO.N,Net-(U1-D4)*%
X102500000Y-34750000D03*
X60250000Y-61000000D03*
%TO.N,Net-(U1-D5)*%
X63000000Y-60250000D03*
X102500000Y-36250000D03*
%TD*%
%TO.N,Net-(U2-COM)*%
D15*
X80920000Y-39200000D02*
X99970000Y-39200000D01*
X108000000Y-33500000D02*
X107500000Y-33000000D01*
X108000000Y-39200000D02*
X108000000Y-33500000D01*
X108000000Y-39200000D02*
X119020000Y-39200000D01*
X99970000Y-39200000D02*
X108000000Y-39200000D01*
X119020000Y-39200000D02*
X138070000Y-39200000D01*
%TO.N,Net-(U2-IN2)*%
X113500000Y-31000000D02*
X113500000Y-30497951D01*
X113500000Y-30497951D02*
X112500000Y-29497951D01*
%TO.N,GND*%
X108600000Y-34500000D02*
X109000000Y-34500000D01*
X109000000Y-34500000D02*
X110250000Y-33250000D01*
%TO.N,Net-(U1-D0)*%
X82540000Y-44920000D02*
X60080000Y-44920000D01*
X60080000Y-44920000D02*
X50000000Y-55000000D01*
%TO.N,Net-(U1-D1)*%
X76760079Y-48940531D02*
X75558859Y-48940531D01*
X84590610Y-44920000D02*
X82651220Y-46859390D01*
X101590000Y-44920000D02*
X84590610Y-44920000D01*
X75417429Y-48799100D02*
X59200900Y-48799100D01*
X78841220Y-46859390D02*
X76760079Y-48940531D01*
X82651220Y-46859390D02*
X78841220Y-46859390D01*
X75558859Y-48940531D02*
X75417429Y-48799100D01*
X59200900Y-48799100D02*
X53000000Y-55000000D01*
%TO.N,Net-(U1-D2)*%
X109785225Y-55000000D02*
X60000000Y-55000000D01*
X119865225Y-44920000D02*
X109785225Y-55000000D01*
X120640000Y-44920000D02*
X119865225Y-44920000D01*
%TO.N,Net-(U1-D3)*%
X122749390Y-56000000D02*
X61000000Y-56000000D01*
X133829390Y-44920000D02*
X122749390Y-56000000D01*
X139690000Y-44920000D02*
X133829390Y-44920000D01*
%TO.N,Net-(U1-D4)*%
X52600000Y-61000000D02*
X60250000Y-61000000D01*
X49000000Y-54585786D02*
X49000000Y-57400000D01*
X102500000Y-34750000D02*
X68835786Y-34750000D01*
X68835786Y-34750000D02*
X49000000Y-54585786D01*
X49000000Y-57400000D02*
X52600000Y-61000000D01*
%TO.N,Net-(U1-D5)*%
X49400000Y-54751471D02*
X49400000Y-56900000D01*
X102500000Y-36250000D02*
X67901471Y-36250000D01*
X67901471Y-36250000D02*
X49400000Y-54751471D01*
X49400000Y-56900000D02*
X52750000Y-60250000D01*
X52750000Y-60250000D02*
X63000000Y-60250000D01*
%TD*%
M02*
