%TF.GenerationSoftware,KiCad,Pcbnew,10.0.6*%
%TF.CreationDate,2026-09-24T13:22:47+02:00*%
%TF.ProjectId,keith,6b656974-682e-46b6-9963-61645f706362,rev?*%
%TF.SameCoordinates,Original*%
%TF.FileFunction,Copper,L3,Inr*%
%TF.FilePolarity,Positive*%
%FSLAX46Y46*%
G04 Gerber Fmt 4.6, Leading zero omitted, Abs format (unit mm)*
G04 Created by KiCad (PCBNEW 10.0.6) date 2026-09-24 13:22:47*
%MOMM*%
%LPD*%
G01*
G04 APERTURE LIST*
%TA.AperFunction,ComponentPad*%
%ADD10R,1.000000X1.000000*%
%TD*%
%TA.AperFunction,ComponentPad*%
%ADD11C,1.000000*%
%TD*%
%TA.AperFunction,ComponentPad*%
%ADD12C,0.600000*%
%TD*%
%TA.AperFunction,ComponentPad*%
%ADD13C,2.300000*%
%TD*%
%TA.AperFunction,ViaPad*%
%ADD14C,0.600000*%
%TD*%
%TA.AperFunction,Conductor*%
%ADD15C,3.000000*%
%TD*%
G04 APERTURE END LIST*
D10*
%TO.N,Net-(J1-Pin_1)*%
%TO.C,J1*%
X45000000Y-36000000D03*
D11*
%TO.N,GND*%
X45000000Y-37270000D03*
%TD*%
D12*
%TO.N,unconnected-(L1-Pad0)*%
%TO.C,L1*%
X80000000Y-43340000D03*
%TD*%
D13*
%TO.N,GND*%
%TO.C,SW1*%
X76190000Y-47460000D03*
%TO.N,Net-(U1-D0)*%
X82540000Y-44920000D03*
%TD*%
%TO.N,GND*%
%TO.C,SW4*%
X133340000Y-47460000D03*
%TO.N,Net-(U1-D3)*%
X139690000Y-44920000D03*
%TD*%
%TO.N,GND*%
%TO.C,SW3*%
X114290000Y-47460000D03*
%TO.N,Net-(U1-D2)*%
X120640000Y-44920000D03*
%TD*%
D12*
%TO.N,unconnected-(L4-Pad0)*%
%TO.C,L4*%
X137150000Y-43340000D03*
%TD*%
D13*
%TO.N,GND*%
%TO.C,SW2*%
X95240000Y-47460000D03*
%TO.N,Net-(U1-D1)*%
X101590000Y-44920000D03*
%TD*%
D12*
%TO.N,unconnected-(L2-Pad0)*%
%TO.C,L2*%
X99050000Y-43340000D03*
%TD*%
%TO.N,unconnected-(L3-Pad0)*%
%TO.C,L3*%
X118100000Y-43340000D03*
%TD*%
D14*
%TO.N,Net-(U2-COM)*%
X119000000Y-39200000D03*
X80920000Y-39200000D03*
X99970000Y-39200000D03*
X138070000Y-39200000D03*
X107500000Y-33000000D03*
%TO.N,Net-(U2-IN2)*%
X113500000Y-31000000D03*
X112500000Y-29497951D03*
%TO.N,GND*%
X51718750Y-39281250D03*
X63750000Y-35500000D03*
X110250000Y-33250000D03*
X54000000Y-53000000D03*
X108600000Y-34500000D03*
X112000000Y-38000000D03*
X52468750Y-40031250D03*
X52250000Y-35000000D03*
%TO.N,Net-(U1-D0)*%
X50000000Y-55000000D03*
%TO.N,Net-(U1-D1)*%
X53000000Y-55000000D03*
%TO.N,Net-(U1-D2)*%
X60000000Y-55000000D03*
%TO.N,Net-(U1-D3)*%
X61000000Y-56000000D03*
%TO.N,Net-(U1-D4)*%
X102500000Y-34750000D03*
X60250000Y-61000000D03*
%TO.N,Net-(U1-D5)*%
X63000000Y-60250000D03*
X102500000Y-36250000D03*
%TD*%
%TO.N,GND*%
D15*
X114290000Y-47460000D02*
X114290000Y-37540000D01*
X133340000Y-47460000D02*
X133340000Y-40000000D01*
X114290000Y-37540000D02*
X114250000Y-37500000D01*
X76190000Y-37810000D02*
X76250000Y-37750000D01*
X95240000Y-47460000D02*
X95240000Y-38010000D01*
X76190000Y-47460000D02*
X76190000Y-37810000D01*
X95240000Y-38010000D02*
X95500000Y-37750000D01*
%TD*%
%TA.AperFunction,Conductor*%
%TO.N,GND*%
G36*
X112259902Y-28520185D02*
G01*
X112305657Y-28572989D01*
X112315601Y-28642147D01*
X112286576Y-28705703D01*
X112240315Y-28739061D01*
X112120827Y-28788553D01*
X112120814Y-28788560D01*
X111989711Y-28876161D01*
X111989707Y-28876164D01*
X111878213Y-28987658D01*
X111878210Y-28987662D01*
X111790609Y-29118765D01*
X111790602Y-29118778D01*
X111730264Y-29264449D01*
X111730261Y-29264461D01*
X111699500Y-29419104D01*
X111699500Y-29576797D01*
X111730261Y-29731440D01*
X111730264Y-29731452D01*
X111790602Y-29877123D01*
X111790609Y-29877136D01*
X111878210Y-30008239D01*
X111878213Y-30008243D01*
X111989707Y-30119737D01*
X111989711Y-30119740D01*
X112120814Y-30207341D01*
X112120827Y-30207348D01*
X112198349Y-30239458D01*
X112266503Y-30267688D01*
X112381699Y-30290602D01*
X112421153Y-30298450D01*
X112421156Y-30298451D01*
X112421158Y-30298451D01*
X112578844Y-30298451D01*
X112578845Y-30298450D01*
X112733497Y-30267688D01*
X112783619Y-30246926D01*
X112853086Y-30239458D01*
X112915565Y-30270733D01*
X112951218Y-30330821D01*
X112948725Y-30400646D01*
X112918752Y-30449168D01*
X112878214Y-30489706D01*
X112878210Y-30489711D01*
X112790609Y-30620814D01*
X112790602Y-30620827D01*
X112730264Y-30766498D01*
X112730261Y-30766510D01*
X112699500Y-30921153D01*
X112699500Y-31078846D01*
X112730261Y-31233489D01*
X112730264Y-31233501D01*
X112790602Y-31379172D01*
X112790609Y-31379185D01*
X112878210Y-31510288D01*
X112878213Y-31510292D01*
X112989707Y-31621786D01*
X112989711Y-31621789D01*
X113120814Y-31709390D01*
X113120827Y-31709397D01*
X113266498Y-31769735D01*
X113266503Y-31769737D01*
X113421153Y-31800499D01*
X113421156Y-31800500D01*
X113421158Y-31800500D01*
X113578844Y-31800500D01*
X113578845Y-31800499D01*
X113733497Y-31769737D01*
X113879179Y-31709394D01*
X114010289Y-31621789D01*
X114121789Y-31510289D01*
X114209394Y-31379179D01*
X114269737Y-31233497D01*
X114300500Y-31078842D01*
X114300500Y-30921158D01*
X114300500Y-30921155D01*
X114300499Y-30921153D01*
X114269738Y-30766510D01*
X114269737Y-30766503D01*
X114269735Y-30766498D01*
X114209397Y-30620827D01*
X114209390Y-30620814D01*
X114121789Y-30489711D01*
X114121786Y-30489707D01*
X114010292Y-30378213D01*
X114010288Y-30378210D01*
X113879185Y-30290609D01*
X113879172Y-30290602D01*
X113733501Y-30230264D01*
X113733489Y-30230261D01*
X113578845Y-30199500D01*
X113578842Y-30199500D01*
X113421158Y-30199500D01*
X113421155Y-30199500D01*
X113266510Y-30230261D01*
X113266503Y-30230263D01*
X113216380Y-30251024D01*
X113146911Y-30258491D01*
X113084432Y-30227216D01*
X113048780Y-30167126D01*
X113051275Y-30097301D01*
X113081249Y-30048780D01*
X113121786Y-30008243D01*
X113121789Y-30008240D01*
X113209394Y-29877130D01*
X113269737Y-29731448D01*
X113300500Y-29576793D01*
X113300500Y-29419109D01*
X113300500Y-29419106D01*
X113300499Y-29419104D01*
X113269738Y-29264461D01*
X113269737Y-29264454D01*
X113269735Y-29264449D01*
X113209397Y-29118778D01*
X113209390Y-29118765D01*
X113121789Y-28987662D01*
X113121786Y-28987658D01*
X113010292Y-28876164D01*
X113010288Y-28876161D01*
X112879185Y-28788560D01*
X112879172Y-28788553D01*
X112759685Y-28739061D01*
X112705281Y-28695220D01*
X112683216Y-28628926D01*
X112700495Y-28561227D01*
X112751632Y-28513616D01*
X112807137Y-28500500D01*
X149375500Y-28500500D01*
X149442539Y-28520185D01*
X149488294Y-28572989D01*
X149499500Y-28624500D01*
X149499500Y-61375500D01*
X149479815Y-61442539D01*
X149427011Y-61488294D01*
X149375500Y-61499500D01*
X61095134Y-61499500D01*
X61028095Y-61479815D01*
X60982340Y-61427011D01*
X60972396Y-61357853D01*
X60980573Y-61328047D01*
X61019737Y-61233497D01*
X61050500Y-61078842D01*
X61050500Y-60921158D01*
X61050500Y-60921155D01*
X61050499Y-60921153D01*
X61019738Y-60766510D01*
X61019737Y-60766503D01*
X61017163Y-60760288D01*
X60959397Y-60620827D01*
X60959390Y-60620814D01*
X60871789Y-60489711D01*
X60871786Y-60489707D01*
X60760292Y-60378213D01*
X60760288Y-60378210D01*
X60629185Y-60290609D01*
X60629173Y-60290602D01*
X60602674Y-60279627D01*
X60483501Y-60230264D01*
X60483489Y-60230261D01*
X60328845Y-60199500D01*
X60328842Y-60199500D01*
X60171158Y-60199500D01*
X60171155Y-60199500D01*
X60016510Y-60230261D01*
X60016498Y-60230264D01*
X59870827Y-60290602D01*
X59870814Y-60290609D01*
X59739711Y-60378210D01*
X59739707Y-60378213D01*
X59628213Y-60489707D01*
X59628210Y-60489711D01*
X59540609Y-60620814D01*
X59540602Y-60620827D01*
X59480264Y-60766498D01*
X59480261Y-60766510D01*
X59449500Y-60921153D01*
X59449500Y-61078846D01*
X59480261Y-61233489D01*
X59480263Y-61233497D01*
X59519427Y-61328047D01*
X59526896Y-61397517D01*
X59495621Y-61459996D01*
X59435532Y-61495648D01*
X59404866Y-61499500D01*
X42624500Y-61499500D01*
X42557461Y-61479815D01*
X42511706Y-61427011D01*
X42500500Y-61375500D01*
X42500500Y-60171153D01*
X62199500Y-60171153D01*
X62199500Y-60328846D01*
X62230261Y-60483489D01*
X62230264Y-60483501D01*
X62290602Y-60629172D01*
X62290609Y-60629185D01*
X62378210Y-60760288D01*
X62378213Y-60760292D01*
X62489707Y-60871786D01*
X62489711Y-60871789D01*
X62620814Y-60959390D01*
X62620827Y-60959397D01*
X62718853Y-61000000D01*
X62766503Y-61019737D01*
X62921153Y-61050499D01*
X62921156Y-61050500D01*
X62921158Y-61050500D01*
X63078844Y-61050500D01*
X63078845Y-61050499D01*
X63233497Y-61019737D01*
X63379179Y-60959394D01*
X63510289Y-60871789D01*
X63621789Y-60760289D01*
X63709394Y-60629179D01*
X63712854Y-60620827D01*
X63767163Y-60489711D01*
X63769737Y-60483497D01*
X63800500Y-60328842D01*
X63800500Y-60171158D01*
X63800500Y-60171155D01*
X63800499Y-60171153D01*
X63769738Y-60016510D01*
X63769737Y-60016503D01*
X63769735Y-60016498D01*
X63709397Y-59870827D01*
X63709390Y-59870814D01*
X63621789Y-59739711D01*
X63621786Y-59739707D01*
X63510292Y-59628213D01*
X63510288Y-59628210D01*
X63379185Y-59540609D01*
X63379172Y-59540602D01*
X63233501Y-59480264D01*
X63233489Y-59480261D01*
X63078845Y-59449500D01*
X63078842Y-59449500D01*
X62921158Y-59449500D01*
X62921155Y-59449500D01*
X62766510Y-59480261D01*
X62766498Y-59480264D01*
X62620827Y-59540602D01*
X62620814Y-59540609D01*
X62489711Y-59628210D01*
X62489707Y-59628213D01*
X62378213Y-59739707D01*
X62378210Y-59739711D01*
X62290609Y-59870814D01*
X62290602Y-59870827D01*
X62230264Y-60016498D01*
X62230261Y-60016510D01*
X62199500Y-60171153D01*
X42500500Y-60171153D01*
X42500500Y-54921153D01*
X49199500Y-54921153D01*
X49199500Y-55078846D01*
X49230261Y-55233489D01*
X49230264Y-55233501D01*
X49290602Y-55379172D01*
X49290609Y-55379185D01*
X49378210Y-55510288D01*
X49378213Y-55510292D01*
X49489707Y-55621786D01*
X49489711Y-55621789D01*
X49620814Y-55709390D01*
X49620827Y-55709397D01*
X49758683Y-55766498D01*
X49766503Y-55769737D01*
X49921153Y-55800499D01*
X49921156Y-55800500D01*
X49921158Y-55800500D01*
X50078844Y-55800500D01*
X50078845Y-55800499D01*
X50233497Y-55769737D01*
X50379179Y-55709394D01*
X50510289Y-55621789D01*
X50621789Y-55510289D01*
X50709394Y-55379179D01*
X50769737Y-55233497D01*
X50800500Y-55078842D01*
X50800500Y-54921158D01*
X50800500Y-54921155D01*
X50800499Y-54921153D01*
X52199500Y-54921153D01*
X52199500Y-55078846D01*
X52230261Y-55233489D01*
X52230264Y-55233501D01*
X52290602Y-55379172D01*
X52290609Y-55379185D01*
X52378210Y-55510288D01*
X52378213Y-55510292D01*
X52489707Y-55621786D01*
X52489711Y-55621789D01*
X52620814Y-55709390D01*
X52620827Y-55709397D01*
X52758683Y-55766498D01*
X52766503Y-55769737D01*
X52921153Y-55800499D01*
X52921156Y-55800500D01*
X52921158Y-55800500D01*
X53078844Y-55800500D01*
X53078845Y-55800499D01*
X53233497Y-55769737D01*
X53379179Y-55709394D01*
X53510289Y-55621789D01*
X53621789Y-55510289D01*
X53709394Y-55379179D01*
X53769737Y-55233497D01*
X53800500Y-55078842D01*
X53800500Y-54921158D01*
X53800500Y-54921155D01*
X53800499Y-54921153D01*
X59199500Y-54921153D01*
X59199500Y-55078846D01*
X59230261Y-55233489D01*
X59230264Y-55233501D01*
X59290602Y-55379172D01*
X59290609Y-55379185D01*
X59378210Y-55510288D01*
X59378213Y-55510292D01*
X59489707Y-55621786D01*
X59489711Y-55621789D01*
X59620814Y-55709390D01*
X59620827Y-55709397D01*
X59758683Y-55766498D01*
X59766503Y-55769737D01*
X59921153Y-55800499D01*
X59921156Y-55800500D01*
X60075500Y-55800500D01*
X60142539Y-55820185D01*
X60188294Y-55872989D01*
X60199500Y-55924500D01*
X60199500Y-56078846D01*
X60230261Y-56233489D01*
X60230264Y-56233501D01*
X60290602Y-56379172D01*
X60290609Y-56379185D01*
X60378210Y-56510288D01*
X60378213Y-56510292D01*
X60489707Y-56621786D01*
X60489711Y-56621789D01*
X60620814Y-56709390D01*
X60620827Y-56709397D01*
X60766498Y-56769735D01*
X60766503Y-56769737D01*
X60921153Y-56800499D01*
X60921156Y-56800500D01*
X60921158Y-56800500D01*
X61078844Y-56800500D01*
X61078845Y-56800499D01*
X61233497Y-56769737D01*
X61379179Y-56709394D01*
X61510289Y-56621789D01*
X61621789Y-56510289D01*
X61709394Y-56379179D01*
X61769737Y-56233497D01*
X61800500Y-56078842D01*
X61800500Y-55921158D01*
X61800500Y-55921155D01*
X61800499Y-55921153D01*
X61769737Y-55766503D01*
X61709794Y-55621786D01*
X61709397Y-55620827D01*
X61709390Y-55620814D01*
X61621789Y-55489711D01*
X61621786Y-55489707D01*
X61510292Y-55378213D01*
X61510288Y-55378210D01*
X61379185Y-55290609D01*
X61379172Y-55290602D01*
X61233501Y-55230264D01*
X61233489Y-55230261D01*
X61078845Y-55199500D01*
X61078842Y-55199500D01*
X60924500Y-55199500D01*
X60857461Y-55179815D01*
X60811706Y-55127011D01*
X60800500Y-55075500D01*
X60800500Y-54921155D01*
X60800499Y-54921153D01*
X60769738Y-54766510D01*
X60769737Y-54766503D01*
X60769735Y-54766498D01*
X60709397Y-54620827D01*
X60709390Y-54620814D01*
X60621789Y-54489711D01*
X60621786Y-54489707D01*
X60510292Y-54378213D01*
X60510288Y-54378210D01*
X60379185Y-54290609D01*
X60379172Y-54290602D01*
X60233501Y-54230264D01*
X60233489Y-54230261D01*
X60078845Y-54199500D01*
X60078842Y-54199500D01*
X59921158Y-54199500D01*
X59921155Y-54199500D01*
X59766510Y-54230261D01*
X59766498Y-54230264D01*
X59620827Y-54290602D01*
X59620814Y-54290609D01*
X59489711Y-54378210D01*
X59489707Y-54378213D01*
X59378213Y-54489707D01*
X59378210Y-54489711D01*
X59290609Y-54620814D01*
X59290602Y-54620827D01*
X59230264Y-54766498D01*
X59230261Y-54766510D01*
X59199500Y-54921153D01*
X53800499Y-54921153D01*
X53769738Y-54766510D01*
X53769737Y-54766503D01*
X53769735Y-54766498D01*
X53709397Y-54620827D01*
X53709390Y-54620814D01*
X53621789Y-54489711D01*
X53621786Y-54489707D01*
X53510292Y-54378213D01*
X53510288Y-54378210D01*
X53379185Y-54290609D01*
X53379172Y-54290602D01*
X53233501Y-54230264D01*
X53233489Y-54230261D01*
X53078845Y-54199500D01*
X53078842Y-54199500D01*
X52921158Y-54199500D01*
X52921155Y-54199500D01*
X52766510Y-54230261D01*
X52766498Y-54230264D01*
X52620827Y-54290602D01*
X52620814Y-54290609D01*
X52489711Y-54378210D01*
X52489707Y-54378213D01*
X52378213Y-54489707D01*
X52378210Y-54489711D01*
X52290609Y-54620814D01*
X52290602Y-54620827D01*
X52230264Y-54766498D01*
X52230261Y-54766510D01*
X52199500Y-54921153D01*
X50800499Y-54921153D01*
X50769738Y-54766510D01*
X50769737Y-54766503D01*
X50769735Y-54766498D01*
X50709397Y-54620827D01*
X50709390Y-54620814D01*
X50621789Y-54489711D01*
X50621786Y-54489707D01*
X50510292Y-54378213D01*
X50510288Y-54378210D01*
X50379185Y-54290609D01*
X50379172Y-54290602D01*
X50233501Y-54230264D01*
X50233489Y-54230261D01*
X50078845Y-54199500D01*
X50078842Y-54199500D01*
X49921158Y-54199500D01*
X49921155Y-54199500D01*
X49766510Y-54230261D01*
X49766498Y-54230264D01*
X49620827Y-54290602D01*
X49620814Y-54290609D01*
X49489711Y-54378210D01*
X49489707Y-54378213D01*
X49378213Y-54489707D01*
X49378210Y-54489711D01*
X49290609Y-54620814D01*
X49290602Y-54620827D01*
X49230264Y-54766498D01*
X49230261Y-54766510D01*
X49199500Y-54921153D01*
X42500500Y-54921153D01*
X42500500Y-39000000D01*
X69000000Y-39000000D01*
X69000000Y-61000000D01*
X148000000Y-61000000D01*
X148000000Y-39000000D01*
X138936466Y-39000000D01*
X138869427Y-38980315D01*
X138823672Y-38927511D01*
X138821905Y-38923452D01*
X138779397Y-38820827D01*
X138779390Y-38820814D01*
X138691789Y-38689711D01*
X138691786Y-38689707D01*
X138580292Y-38578213D01*
X138580288Y-38578210D01*
X138449185Y-38490609D01*
X138449172Y-38490602D01*
X138303501Y-38430264D01*
X138303489Y-38430261D01*
X138148845Y-38399500D01*
X138148842Y-38399500D01*
X137991158Y-38399500D01*
X137991155Y-38399500D01*
X137836510Y-38430261D01*
X137836498Y-38430264D01*
X137690827Y-38490602D01*
X137690814Y-38490609D01*
X137559711Y-38578210D01*
X137559707Y-38578213D01*
X137448213Y-38689707D01*
X137448210Y-38689711D01*
X137360609Y-38820814D01*
X137360602Y-38820827D01*
X137318095Y-38923452D01*
X137274255Y-38977856D01*
X137207961Y-38999921D01*
X137203534Y-39000000D01*
X119866466Y-39000000D01*
X119799427Y-38980315D01*
X119753672Y-38927511D01*
X119751905Y-38923452D01*
X119709397Y-38820827D01*
X119709390Y-38820814D01*
X119621789Y-38689711D01*
X119621786Y-38689707D01*
X119510292Y-38578213D01*
X119510288Y-38578210D01*
X119379185Y-38490609D01*
X119379172Y-38490602D01*
X119233501Y-38430264D01*
X119233489Y-38430261D01*
X119078845Y-38399500D01*
X119078842Y-38399500D01*
X118921158Y-38399500D01*
X118921155Y-38399500D01*
X118766510Y-38430261D01*
X118766498Y-38430264D01*
X118620827Y-38490602D01*
X118620814Y-38490609D01*
X118489711Y-38578210D01*
X118489707Y-38578213D01*
X118378213Y-38689707D01*
X118378210Y-38689711D01*
X118290609Y-38820814D01*
X118290602Y-38820827D01*
X118248095Y-38923452D01*
X118204255Y-38977856D01*
X118137961Y-38999921D01*
X118133534Y-39000000D01*
X100836466Y-39000000D01*
X100769427Y-38980315D01*
X100723672Y-38927511D01*
X100721905Y-38923452D01*
X100679397Y-38820827D01*
X100679390Y-38820814D01*
X100591789Y-38689711D01*
X100591786Y-38689707D01*
X100480292Y-38578213D01*
X100480288Y-38578210D01*
X100349185Y-38490609D01*
X100349172Y-38490602D01*
X100203501Y-38430264D01*
X100203489Y-38430261D01*
X100048845Y-38399500D01*
X100048842Y-38399500D01*
X99891158Y-38399500D01*
X99891155Y-38399500D01*
X99736510Y-38430261D01*
X99736498Y-38430264D01*
X99590827Y-38490602D01*
X99590814Y-38490609D01*
X99459711Y-38578210D01*
X99459707Y-38578213D01*
X99348213Y-38689707D01*
X99348210Y-38689711D01*
X99260609Y-38820814D01*
X99260602Y-38820827D01*
X99218095Y-38923452D01*
X99174255Y-38977856D01*
X99107961Y-38999921D01*
X99103534Y-39000000D01*
X81786466Y-39000000D01*
X81719427Y-38980315D01*
X81673672Y-38927511D01*
X81671905Y-38923452D01*
X81629397Y-38820827D01*
X81629390Y-38820814D01*
X81541789Y-38689711D01*
X81541786Y-38689707D01*
X81430292Y-38578213D01*
X81430288Y-38578210D01*
X81299185Y-38490609D01*
X81299172Y-38490602D01*
X81153501Y-38430264D01*
X81153489Y-38430261D01*
X80998845Y-38399500D01*
X80998842Y-38399500D01*
X80841158Y-38399500D01*
X80841155Y-38399500D01*
X80686510Y-38430261D01*
X80686498Y-38430264D01*
X80540827Y-38490602D01*
X80540814Y-38490609D01*
X80409711Y-38578210D01*
X80409707Y-38578213D01*
X80298213Y-38689707D01*
X80298210Y-38689711D01*
X80210609Y-38820814D01*
X80210602Y-38820827D01*
X80168095Y-38923452D01*
X80124255Y-38977856D01*
X80057961Y-38999921D01*
X80053534Y-39000000D01*
X69000000Y-39000000D01*
X42500500Y-39000000D01*
X42500500Y-38132572D01*
X44490979Y-38132572D01*
X44526328Y-38156192D01*
X44708306Y-38231569D01*
X44708318Y-38231572D01*
X44901504Y-38269999D01*
X44901508Y-38270000D01*
X45098492Y-38270000D01*
X45098495Y-38269999D01*
X45291681Y-38231572D01*
X45291693Y-38231569D01*
X45473676Y-38156190D01*
X45473680Y-38156187D01*
X45509019Y-38132573D01*
X45509020Y-38132572D01*
X45000001Y-37623553D01*
X45000000Y-37623553D01*
X44490979Y-38132572D01*
X42500500Y-38132572D01*
X42500500Y-35452135D01*
X43999500Y-35452135D01*
X43999500Y-36547870D01*
X43999501Y-36547876D01*
X44005908Y-36607483D01*
X44056202Y-36742328D01*
X44056203Y-36742330D01*
X44065372Y-36754578D01*
X44089788Y-36820043D01*
X44080665Y-36876340D01*
X44038432Y-36978300D01*
X44038427Y-36978317D01*
X44000000Y-37171504D01*
X44000000Y-37368495D01*
X44038427Y-37561681D01*
X44038430Y-37561693D01*
X44113808Y-37743673D01*
X44113809Y-37743675D01*
X44137426Y-37779019D01*
X44675000Y-37241445D01*
X44675000Y-37312787D01*
X44697149Y-37395445D01*
X44739936Y-37469554D01*
X44800446Y-37530064D01*
X44874555Y-37572851D01*
X44957213Y-37595000D01*
X45042787Y-37595000D01*
X45125445Y-37572851D01*
X45199554Y-37530064D01*
X45260064Y-37469554D01*
X45302851Y-37395445D01*
X45325000Y-37312787D01*
X45325000Y-37241447D01*
X45862572Y-37779020D01*
X45862573Y-37779019D01*
X45886187Y-37743680D01*
X45886190Y-37743676D01*
X45961569Y-37561693D01*
X45961572Y-37561681D01*
X45999999Y-37368495D01*
X46000000Y-37368492D01*
X46000000Y-37171508D01*
X45999999Y-37171504D01*
X45961573Y-36978318D01*
X45961570Y-36978309D01*
X45919333Y-36876339D01*
X45911864Y-36806870D01*
X45934629Y-36754576D01*
X45943796Y-36742331D01*
X45994091Y-36607483D01*
X46000500Y-36547873D01*
X46000499Y-35452128D01*
X45994091Y-35392517D01*
X45944774Y-35260292D01*
X45943797Y-35257671D01*
X45943793Y-35257664D01*
X45857547Y-35142455D01*
X45857544Y-35142452D01*
X45742335Y-35056206D01*
X45742328Y-35056202D01*
X45607482Y-35005908D01*
X45607483Y-35005908D01*
X45547883Y-34999501D01*
X45547881Y-34999500D01*
X45547873Y-34999500D01*
X45547864Y-34999500D01*
X44452129Y-34999500D01*
X44452123Y-34999501D01*
X44392516Y-35005908D01*
X44257671Y-35056202D01*
X44257664Y-35056206D01*
X44142455Y-35142452D01*
X44142452Y-35142455D01*
X44056206Y-35257664D01*
X44056202Y-35257671D01*
X44005908Y-35392517D01*
X43999674Y-35450511D01*
X43999501Y-35452123D01*
X43999500Y-35452135D01*
X42500500Y-35452135D01*
X42500500Y-34671153D01*
X101699500Y-34671153D01*
X101699500Y-34828846D01*
X101730261Y-34983489D01*
X101730264Y-34983501D01*
X101790602Y-35129172D01*
X101790609Y-35129185D01*
X101878210Y-35260288D01*
X101878213Y-35260292D01*
X101989707Y-35371786D01*
X101989710Y-35371788D01*
X101989711Y-35371789D01*
X102015219Y-35388833D01*
X102027289Y-35396898D01*
X102072093Y-35450511D01*
X102080800Y-35519836D01*
X102050645Y-35582863D01*
X102027289Y-35603102D01*
X101989707Y-35628213D01*
X101878213Y-35739707D01*
X101878210Y-35739711D01*
X101790609Y-35870814D01*
X101790602Y-35870827D01*
X101730264Y-36016498D01*
X101730261Y-36016510D01*
X101699500Y-36171153D01*
X101699500Y-36328846D01*
X101730261Y-36483489D01*
X101730264Y-36483501D01*
X101790602Y-36629172D01*
X101790609Y-36629185D01*
X101878210Y-36760288D01*
X101878213Y-36760292D01*
X101989707Y-36871786D01*
X101989711Y-36871789D01*
X102120814Y-36959390D01*
X102120827Y-36959397D01*
X102220060Y-37000500D01*
X102266503Y-37019737D01*
X102421153Y-37050499D01*
X102421156Y-37050500D01*
X102421158Y-37050500D01*
X102578844Y-37050500D01*
X102578845Y-37050499D01*
X102733497Y-37019737D01*
X102879179Y-36959394D01*
X103010289Y-36871789D01*
X103121789Y-36760289D01*
X103209394Y-36629179D01*
X103269737Y-36483497D01*
X103300500Y-36328842D01*
X103300500Y-36171158D01*
X103300500Y-36171155D01*
X103300499Y-36171153D01*
X103269738Y-36016510D01*
X103269737Y-36016503D01*
X103269735Y-36016498D01*
X103209397Y-35870827D01*
X103209390Y-35870814D01*
X103121789Y-35739711D01*
X103121786Y-35739707D01*
X103010292Y-35628213D01*
X103010284Y-35628207D01*
X102972712Y-35603102D01*
X102927906Y-35549490D01*
X102919199Y-35480165D01*
X102949353Y-35417138D01*
X102972712Y-35396898D01*
X102999279Y-35379145D01*
X103010289Y-35371789D01*
X103121789Y-35260289D01*
X103209394Y-35129179D01*
X103269737Y-34983497D01*
X103300500Y-34828842D01*
X103300500Y-34671158D01*
X103300500Y-34671155D01*
X103300499Y-34671153D01*
X103269738Y-34516510D01*
X103269737Y-34516503D01*
X103269735Y-34516498D01*
X103209397Y-34370827D01*
X103209390Y-34370814D01*
X103121789Y-34239711D01*
X103121786Y-34239707D01*
X103010292Y-34128213D01*
X103010288Y-34128210D01*
X102879185Y-34040609D01*
X102879172Y-34040602D01*
X102733501Y-33980264D01*
X102733489Y-33980261D01*
X102578845Y-33949500D01*
X102578842Y-33949500D01*
X102421158Y-33949500D01*
X102421155Y-33949500D01*
X102266510Y-33980261D01*
X102266498Y-33980264D01*
X102120827Y-34040602D01*
X102120814Y-34040609D01*
X101989711Y-34128210D01*
X101989707Y-34128213D01*
X101878213Y-34239707D01*
X101878210Y-34239711D01*
X101790609Y-34370814D01*
X101790602Y-34370827D01*
X101730264Y-34516498D01*
X101730261Y-34516510D01*
X101699500Y-34671153D01*
X42500500Y-34671153D01*
X42500500Y-32921153D01*
X106699500Y-32921153D01*
X106699500Y-33078846D01*
X106730261Y-33233489D01*
X106730264Y-33233501D01*
X106790602Y-33379172D01*
X106790609Y-33379185D01*
X106878210Y-33510288D01*
X106878213Y-33510292D01*
X106989707Y-33621786D01*
X106989711Y-33621789D01*
X107120814Y-33709390D01*
X107120827Y-33709397D01*
X107266498Y-33769735D01*
X107266503Y-33769737D01*
X107421153Y-33800499D01*
X107421156Y-33800500D01*
X107421158Y-33800500D01*
X107578844Y-33800500D01*
X107578845Y-33800499D01*
X107733497Y-33769737D01*
X107879179Y-33709394D01*
X108010289Y-33621789D01*
X108121789Y-33510289D01*
X108209394Y-33379179D01*
X108269737Y-33233497D01*
X108300500Y-33078842D01*
X108300500Y-32921158D01*
X108300500Y-32921155D01*
X108300499Y-32921153D01*
X108269738Y-32766510D01*
X108269737Y-32766503D01*
X108269735Y-32766498D01*
X108209397Y-32620827D01*
X108209390Y-32620814D01*
X108121789Y-32489711D01*
X108121786Y-32489707D01*
X108010292Y-32378213D01*
X108010288Y-32378210D01*
X107879185Y-32290609D01*
X107879172Y-32290602D01*
X107733501Y-32230264D01*
X107733489Y-32230261D01*
X107578845Y-32199500D01*
X107578842Y-32199500D01*
X107421158Y-32199500D01*
X107421155Y-32199500D01*
X107266510Y-32230261D01*
X107266498Y-32230264D01*
X107120827Y-32290602D01*
X107120814Y-32290609D01*
X106989711Y-32378210D01*
X106989707Y-32378213D01*
X106878213Y-32489707D01*
X106878210Y-32489711D01*
X106790609Y-32620814D01*
X106790602Y-32620827D01*
X106730264Y-32766498D01*
X106730261Y-32766510D01*
X106699500Y-32921153D01*
X42500500Y-32921153D01*
X42500500Y-28624500D01*
X42520185Y-28557461D01*
X42572989Y-28511706D01*
X42624500Y-28500500D01*
X112192863Y-28500500D01*
X112259902Y-28520185D01*
G37*
%TD.AperFunction*%
%TD*%
M02*
