%TF.GenerationSoftware,KiCad,Pcbnew,10.0.6*%
%TF.CreationDate,2026-09-24T13:22:49+02:00*%
%TF.ProjectId,keith,6b656974-682e-46b6-9963-61645f706362,rev?*%
%TF.SameCoordinates,Original*%
%TF.FileFunction,Soldermask,Top*%
%TF.FilePolarity,Negative*%
%FSLAX46Y46*%
G04 Gerber Fmt 4.6, Leading zero omitted, Abs format (unit mm)*
G04 Created by KiCad (PCBNEW 10.0.6) date 2026-09-24 13:22:49*
%MOMM*%
%LPD*%
G01*
G04 APERTURE LIST*
G04 Aperture macros list*
%AMRoundRect*
0 Rectangle with rounded corners*
0 $1 Rounding radius*
0 $2 $3 $4 $5 $6 $7 $8 $9 X,Y pos of 4 corners*
0 Add a 4 corners polygon primitive as box body*
4,1,4,$2,$3,$4,$5,$6,$7,$8,$9,$2,$3,0*
0 Add four circle primitives for the rounded corners*
1,1,$1+$1,$2,$3*
1,1,$1+$1,$4,$5*
1,1,$1+$1,$6,$7*
1,1,$1+$1,$8,$9*
0 Add four rect primitives between the rounded corners*
20,1,$1+$1,$2,$3,$4,$5,0*
20,1,$1+$1,$4,$5,$6,$7,0*
20,1,$1+$1,$6,$7,$8,$9,0*
20,1,$1+$1,$8,$9,$2,$3,0*%
G04 Aperture macros list end*
%ADD10RoundRect,0.150000X-0.512500X-0.150000X0.512500X-0.150000X0.512500X0.150000X-0.512500X0.150000X0*%
%ADD11RoundRect,0.250000X-0.650000X0.412500X-0.650000X-0.412500X0.650000X-0.412500X0.650000X0.412500X0*%
%ADD12RoundRect,0.250000X-0.412500X-0.650000X0.412500X-0.650000X0.412500X0.650000X-0.412500X0.650000X0*%
%ADD13R,1.000000X1.000000*%
%ADD14C,1.000000*%
%ADD15C,0.600000*%
%ADD16C,1.701800*%
%ADD17C,3.987800*%
%ADD18RoundRect,0.250000X0.412500X0.650000X-0.412500X0.650000X-0.412500X-0.650000X0.412500X-0.650000X0*%
%ADD19RoundRect,0.550800X0.500000X-0.875000X0.500000X0.875000X-0.500000X0.875000X-0.500000X-0.875000X0*%
%ADD20C,1.700000*%
%ADD21RoundRect,0.275000X-0.275000X0.975000X-0.275000X-0.975000X0.275000X-0.975000X0.275000X0.975000X0*%
%ADD22RoundRect,0.275000X-0.975000X-0.275000X0.975000X-0.275000X0.975000X0.275000X-0.975000X0.275000X0*%
%ADD23R,0.354800X1.404099*%
G04 APERTURE END LIST*
D10*
%TO.C,U3*%
X51112500Y-34050000D03*
X51112500Y-35000000D03*
X51112500Y-35950000D03*
X53387500Y-35950000D03*
X53387500Y-34050000D03*
%TD*%
D11*
%TO.C,C5*%
X112000000Y-32937500D03*
X112000000Y-36062500D03*
%TD*%
D12*
%TO.C,C4*%
X135375000Y-37000000D03*
X138500000Y-37000000D03*
%TD*%
%TO.C,C2*%
X97437500Y-37000000D03*
X100562500Y-37000000D03*
%TD*%
D13*
%TO.C,J1*%
X45000000Y-36000000D03*
D14*
X45000000Y-37270000D03*
%TD*%
D15*
%TO.C,L1*%
X80000000Y-43340000D03*
%TD*%
D16*
%TO.C,SW1*%
X74920000Y-50000000D03*
D17*
X80000000Y-50000000D03*
D16*
X85080000Y-50000000D03*
%TD*%
%TO.C,SW4*%
X132070000Y-50000000D03*
D17*
X137150000Y-50000000D03*
D16*
X142230000Y-50000000D03*
%TD*%
%TO.C,SW3*%
X113020000Y-50000000D03*
D17*
X118100000Y-50000000D03*
D16*
X123180000Y-50000000D03*
%TD*%
D15*
%TO.C,L4*%
X137150000Y-43340000D03*
%TD*%
D12*
%TO.C,C1*%
X78437500Y-37000000D03*
X81562500Y-37000000D03*
%TD*%
%TO.C,C3*%
X116500000Y-37000000D03*
X119625000Y-37000000D03*
%TD*%
D18*
%TO.C,C7*%
X61562500Y-35500000D03*
X58437500Y-35500000D03*
%TD*%
D16*
%TO.C,SW2*%
X93970000Y-50000000D03*
D17*
X99050000Y-50000000D03*
D16*
X104130000Y-50000000D03*
%TD*%
D15*
%TO.C,L2*%
X99050000Y-43340000D03*
%TD*%
D19*
%TO.C,U1*%
X50143100Y-57865000D03*
X52683100Y-57865000D03*
X55223100Y-57865000D03*
X57763100Y-57865000D03*
X60303100Y-57865000D03*
X62843100Y-57865000D03*
X65383100Y-57865000D03*
X65383100Y-41700000D03*
X62843100Y-41700000D03*
X60303100Y-41700000D03*
X57763100Y-41700000D03*
X55223100Y-41700000D03*
X52683100Y-41700000D03*
X50143100Y-41700000D03*
D20*
X49194600Y-51080000D03*
X49194600Y-48540000D03*
X51734600Y-51080000D03*
X51734600Y-48540000D03*
D21*
X57449600Y-54255000D03*
X55544600Y-54255000D03*
D22*
X67000000Y-46000000D03*
X67000000Y-44095000D03*
%TD*%
D12*
%TO.C,C6*%
X50437500Y-38000000D03*
X53562500Y-38000000D03*
%TD*%
D15*
%TO.C,L3*%
X118100000Y-43340000D03*
%TD*%
D23*
%TO.C,U2*%
X108949958Y-31500000D03*
X108299972Y-31500000D03*
X107649986Y-31500000D03*
X107000000Y-31500000D03*
X106350014Y-31500000D03*
X105700028Y-31500000D03*
X105050042Y-31500000D03*
X104400056Y-31500000D03*
X104400056Y-37399896D03*
X105050042Y-37399896D03*
X105700028Y-37399896D03*
X106350014Y-37399896D03*
X107000000Y-37399896D03*
X107649986Y-37399896D03*
X108299972Y-37399896D03*
X108949958Y-37399896D03*
%TD*%
M02*
