%TF.GenerationSoftware,KiCad,Pcbnew,10.0.6*%
%TF.CreationDate,2026-09-24T13:22:48+02:00*%
%TF.ProjectId,keith,6b656974-682e-46b6-9963-61645f706362,rev?*%
%TF.SameCoordinates,Original*%
%TF.FileFunction,Legend,Top*%
%TF.FilePolarity,Positive*%
%FSLAX46Y46*%
G04 Gerber Fmt 4.6, Leading zero omitted, Abs format (unit mm)*
G04 Created by KiCad (PCBNEW 10.0.6) date 2026-09-24 13:22:48*
%MOMM*%
%LPD*%
G01*
G04 APERTURE LIST*
%ADD10C,0.150000*%
%ADD11C,0.120000*%
%ADD12C,0.127000*%
%ADD13C,0.100000*%
%ADD14C,0.504000*%
%ADD15C,0.152400*%
%ADD16C,0.000000*%
G04 APERTURE END LIST*
D10*
X51488095Y-31454819D02*
X51488095Y-32264342D01*
X51488095Y-32264342D02*
X51535714Y-32359580D01*
X51535714Y-32359580D02*
X51583333Y-32407200D01*
X51583333Y-32407200D02*
X51678571Y-32454819D01*
X51678571Y-32454819D02*
X51869047Y-32454819D01*
X51869047Y-32454819D02*
X51964285Y-32407200D01*
X51964285Y-32407200D02*
X52011904Y-32359580D01*
X52011904Y-32359580D02*
X52059523Y-32264342D01*
X52059523Y-32264342D02*
X52059523Y-31454819D01*
X52440476Y-31454819D02*
X53059523Y-31454819D01*
X53059523Y-31454819D02*
X52726190Y-31835771D01*
X52726190Y-31835771D02*
X52869047Y-31835771D01*
X52869047Y-31835771D02*
X52964285Y-31883390D01*
X52964285Y-31883390D02*
X53011904Y-31931009D01*
X53011904Y-31931009D02*
X53059523Y-32026247D01*
X53059523Y-32026247D02*
X53059523Y-32264342D01*
X53059523Y-32264342D02*
X53011904Y-32359580D01*
X53011904Y-32359580D02*
X52964285Y-32407200D01*
X52964285Y-32407200D02*
X52869047Y-32454819D01*
X52869047Y-32454819D02*
X52583333Y-32454819D01*
X52583333Y-32454819D02*
X52488095Y-32407200D01*
X52488095Y-32407200D02*
X52440476Y-32359580D01*
X114209580Y-34666666D02*
X114257200Y-34714285D01*
X114257200Y-34714285D02*
X114304819Y-34857142D01*
X114304819Y-34857142D02*
X114304819Y-34952380D01*
X114304819Y-34952380D02*
X114257200Y-35095237D01*
X114257200Y-35095237D02*
X114161961Y-35190475D01*
X114161961Y-35190475D02*
X114066723Y-35238094D01*
X114066723Y-35238094D02*
X113876247Y-35285713D01*
X113876247Y-35285713D02*
X113733390Y-35285713D01*
X113733390Y-35285713D02*
X113542914Y-35238094D01*
X113542914Y-35238094D02*
X113447676Y-35190475D01*
X113447676Y-35190475D02*
X113352438Y-35095237D01*
X113352438Y-35095237D02*
X113304819Y-34952380D01*
X113304819Y-34952380D02*
X113304819Y-34857142D01*
X113304819Y-34857142D02*
X113352438Y-34714285D01*
X113352438Y-34714285D02*
X113400057Y-34666666D01*
X113304819Y-33761904D02*
X113304819Y-34238094D01*
X113304819Y-34238094D02*
X113781009Y-34285713D01*
X113781009Y-34285713D02*
X113733390Y-34238094D01*
X113733390Y-34238094D02*
X113685771Y-34142856D01*
X113685771Y-34142856D02*
X113685771Y-33904761D01*
X113685771Y-33904761D02*
X113733390Y-33809523D01*
X113733390Y-33809523D02*
X113781009Y-33761904D01*
X113781009Y-33761904D02*
X113876247Y-33714285D01*
X113876247Y-33714285D02*
X114114342Y-33714285D01*
X114114342Y-33714285D02*
X114209580Y-33761904D01*
X114209580Y-33761904D02*
X114257200Y-33809523D01*
X114257200Y-33809523D02*
X114304819Y-33904761D01*
X114304819Y-33904761D02*
X114304819Y-34142856D01*
X114304819Y-34142856D02*
X114257200Y-34238094D01*
X114257200Y-34238094D02*
X114209580Y-34285713D01*
X136770833Y-35509580D02*
X136723214Y-35557200D01*
X136723214Y-35557200D02*
X136580357Y-35604819D01*
X136580357Y-35604819D02*
X136485119Y-35604819D01*
X136485119Y-35604819D02*
X136342262Y-35557200D01*
X136342262Y-35557200D02*
X136247024Y-35461961D01*
X136247024Y-35461961D02*
X136199405Y-35366723D01*
X136199405Y-35366723D02*
X136151786Y-35176247D01*
X136151786Y-35176247D02*
X136151786Y-35033390D01*
X136151786Y-35033390D02*
X136199405Y-34842914D01*
X136199405Y-34842914D02*
X136247024Y-34747676D01*
X136247024Y-34747676D02*
X136342262Y-34652438D01*
X136342262Y-34652438D02*
X136485119Y-34604819D01*
X136485119Y-34604819D02*
X136580357Y-34604819D01*
X136580357Y-34604819D02*
X136723214Y-34652438D01*
X136723214Y-34652438D02*
X136770833Y-34700057D01*
X137627976Y-34938152D02*
X137627976Y-35604819D01*
X137389881Y-34557200D02*
X137151786Y-35271485D01*
X137151786Y-35271485D02*
X137770833Y-35271485D01*
X98833333Y-35509580D02*
X98785714Y-35557200D01*
X98785714Y-35557200D02*
X98642857Y-35604819D01*
X98642857Y-35604819D02*
X98547619Y-35604819D01*
X98547619Y-35604819D02*
X98404762Y-35557200D01*
X98404762Y-35557200D02*
X98309524Y-35461961D01*
X98309524Y-35461961D02*
X98261905Y-35366723D01*
X98261905Y-35366723D02*
X98214286Y-35176247D01*
X98214286Y-35176247D02*
X98214286Y-35033390D01*
X98214286Y-35033390D02*
X98261905Y-34842914D01*
X98261905Y-34842914D02*
X98309524Y-34747676D01*
X98309524Y-34747676D02*
X98404762Y-34652438D01*
X98404762Y-34652438D02*
X98547619Y-34604819D01*
X98547619Y-34604819D02*
X98642857Y-34604819D01*
X98642857Y-34604819D02*
X98785714Y-34652438D01*
X98785714Y-34652438D02*
X98833333Y-34700057D01*
X99214286Y-34700057D02*
X99261905Y-34652438D01*
X99261905Y-34652438D02*
X99357143Y-34604819D01*
X99357143Y-34604819D02*
X99595238Y-34604819D01*
X99595238Y-34604819D02*
X99690476Y-34652438D01*
X99690476Y-34652438D02*
X99738095Y-34700057D01*
X99738095Y-34700057D02*
X99785714Y-34795295D01*
X99785714Y-34795295D02*
X99785714Y-34890533D01*
X99785714Y-34890533D02*
X99738095Y-35033390D01*
X99738095Y-35033390D02*
X99166667Y-35604819D01*
X99166667Y-35604819D02*
X99785714Y-35604819D01*
X44666666Y-33709819D02*
X44666666Y-34424104D01*
X44666666Y-34424104D02*
X44619047Y-34566961D01*
X44619047Y-34566961D02*
X44523809Y-34662200D01*
X44523809Y-34662200D02*
X44380952Y-34709819D01*
X44380952Y-34709819D02*
X44285714Y-34709819D01*
X45666666Y-34709819D02*
X45095238Y-34709819D01*
X45380952Y-34709819D02*
X45380952Y-33709819D01*
X45380952Y-33709819D02*
X45285714Y-33852676D01*
X45285714Y-33852676D02*
X45190476Y-33947914D01*
X45190476Y-33947914D02*
X45095238Y-33995533D01*
X79833333Y-35509580D02*
X79785714Y-35557200D01*
X79785714Y-35557200D02*
X79642857Y-35604819D01*
X79642857Y-35604819D02*
X79547619Y-35604819D01*
X79547619Y-35604819D02*
X79404762Y-35557200D01*
X79404762Y-35557200D02*
X79309524Y-35461961D01*
X79309524Y-35461961D02*
X79261905Y-35366723D01*
X79261905Y-35366723D02*
X79214286Y-35176247D01*
X79214286Y-35176247D02*
X79214286Y-35033390D01*
X79214286Y-35033390D02*
X79261905Y-34842914D01*
X79261905Y-34842914D02*
X79309524Y-34747676D01*
X79309524Y-34747676D02*
X79404762Y-34652438D01*
X79404762Y-34652438D02*
X79547619Y-34604819D01*
X79547619Y-34604819D02*
X79642857Y-34604819D01*
X79642857Y-34604819D02*
X79785714Y-34652438D01*
X79785714Y-34652438D02*
X79833333Y-34700057D01*
X80785714Y-35604819D02*
X80214286Y-35604819D01*
X80500000Y-35604819D02*
X80500000Y-34604819D01*
X80500000Y-34604819D02*
X80404762Y-34747676D01*
X80404762Y-34747676D02*
X80309524Y-34842914D01*
X80309524Y-34842914D02*
X80214286Y-34890533D01*
X117895833Y-35509580D02*
X117848214Y-35557200D01*
X117848214Y-35557200D02*
X117705357Y-35604819D01*
X117705357Y-35604819D02*
X117610119Y-35604819D01*
X117610119Y-35604819D02*
X117467262Y-35557200D01*
X117467262Y-35557200D02*
X117372024Y-35461961D01*
X117372024Y-35461961D02*
X117324405Y-35366723D01*
X117324405Y-35366723D02*
X117276786Y-35176247D01*
X117276786Y-35176247D02*
X117276786Y-35033390D01*
X117276786Y-35033390D02*
X117324405Y-34842914D01*
X117324405Y-34842914D02*
X117372024Y-34747676D01*
X117372024Y-34747676D02*
X117467262Y-34652438D01*
X117467262Y-34652438D02*
X117610119Y-34604819D01*
X117610119Y-34604819D02*
X117705357Y-34604819D01*
X117705357Y-34604819D02*
X117848214Y-34652438D01*
X117848214Y-34652438D02*
X117895833Y-34700057D01*
X118229167Y-34604819D02*
X118848214Y-34604819D01*
X118848214Y-34604819D02*
X118514881Y-34985771D01*
X118514881Y-34985771D02*
X118657738Y-34985771D01*
X118657738Y-34985771D02*
X118752976Y-35033390D01*
X118752976Y-35033390D02*
X118800595Y-35081009D01*
X118800595Y-35081009D02*
X118848214Y-35176247D01*
X118848214Y-35176247D02*
X118848214Y-35414342D01*
X118848214Y-35414342D02*
X118800595Y-35509580D01*
X118800595Y-35509580D02*
X118752976Y-35557200D01*
X118752976Y-35557200D02*
X118657738Y-35604819D01*
X118657738Y-35604819D02*
X118372024Y-35604819D01*
X118372024Y-35604819D02*
X118276786Y-35557200D01*
X118276786Y-35557200D02*
X118229167Y-35509580D01*
X63833333Y-35859580D02*
X63785714Y-35907200D01*
X63785714Y-35907200D02*
X63642857Y-35954819D01*
X63642857Y-35954819D02*
X63547619Y-35954819D01*
X63547619Y-35954819D02*
X63404762Y-35907200D01*
X63404762Y-35907200D02*
X63309524Y-35811961D01*
X63309524Y-35811961D02*
X63261905Y-35716723D01*
X63261905Y-35716723D02*
X63214286Y-35526247D01*
X63214286Y-35526247D02*
X63214286Y-35383390D01*
X63214286Y-35383390D02*
X63261905Y-35192914D01*
X63261905Y-35192914D02*
X63309524Y-35097676D01*
X63309524Y-35097676D02*
X63404762Y-35002438D01*
X63404762Y-35002438D02*
X63547619Y-34954819D01*
X63547619Y-34954819D02*
X63642857Y-34954819D01*
X63642857Y-34954819D02*
X63785714Y-35002438D01*
X63785714Y-35002438D02*
X63833333Y-35050057D01*
X64166667Y-34954819D02*
X64833333Y-34954819D01*
X64833333Y-34954819D02*
X64404762Y-35954819D01*
X47833333Y-38359580D02*
X47785714Y-38407200D01*
X47785714Y-38407200D02*
X47642857Y-38454819D01*
X47642857Y-38454819D02*
X47547619Y-38454819D01*
X47547619Y-38454819D02*
X47404762Y-38407200D01*
X47404762Y-38407200D02*
X47309524Y-38311961D01*
X47309524Y-38311961D02*
X47261905Y-38216723D01*
X47261905Y-38216723D02*
X47214286Y-38026247D01*
X47214286Y-38026247D02*
X47214286Y-37883390D01*
X47214286Y-37883390D02*
X47261905Y-37692914D01*
X47261905Y-37692914D02*
X47309524Y-37597676D01*
X47309524Y-37597676D02*
X47404762Y-37502438D01*
X47404762Y-37502438D02*
X47547619Y-37454819D01*
X47547619Y-37454819D02*
X47642857Y-37454819D01*
X47642857Y-37454819D02*
X47785714Y-37502438D01*
X47785714Y-37502438D02*
X47833333Y-37550057D01*
X48690476Y-37454819D02*
X48500000Y-37454819D01*
X48500000Y-37454819D02*
X48404762Y-37502438D01*
X48404762Y-37502438D02*
X48357143Y-37550057D01*
X48357143Y-37550057D02*
X48261905Y-37692914D01*
X48261905Y-37692914D02*
X48214286Y-37883390D01*
X48214286Y-37883390D02*
X48214286Y-38264342D01*
X48214286Y-38264342D02*
X48261905Y-38359580D01*
X48261905Y-38359580D02*
X48309524Y-38407200D01*
X48309524Y-38407200D02*
X48404762Y-38454819D01*
X48404762Y-38454819D02*
X48595238Y-38454819D01*
X48595238Y-38454819D02*
X48690476Y-38407200D01*
X48690476Y-38407200D02*
X48738095Y-38359580D01*
X48738095Y-38359580D02*
X48785714Y-38264342D01*
X48785714Y-38264342D02*
X48785714Y-38026247D01*
X48785714Y-38026247D02*
X48738095Y-37931009D01*
X48738095Y-37931009D02*
X48690476Y-37883390D01*
X48690476Y-37883390D02*
X48595238Y-37835771D01*
X48595238Y-37835771D02*
X48404762Y-37835771D01*
X48404762Y-37835771D02*
X48309524Y-37883390D01*
X48309524Y-37883390D02*
X48261905Y-37931009D01*
X48261905Y-37931009D02*
X48214286Y-38026247D01*
X107220187Y-33688043D02*
X106410664Y-33688043D01*
X106410664Y-33688043D02*
X106315426Y-33735662D01*
X106315426Y-33735662D02*
X106267807Y-33783281D01*
X106267807Y-33783281D02*
X106220187Y-33878519D01*
X106220187Y-33878519D02*
X106220187Y-34068995D01*
X106220187Y-34068995D02*
X106267807Y-34164233D01*
X106267807Y-34164233D02*
X106315426Y-34211852D01*
X106315426Y-34211852D02*
X106410664Y-34259471D01*
X106410664Y-34259471D02*
X107220187Y-34259471D01*
X107124949Y-34688043D02*
X107172568Y-34735662D01*
X107172568Y-34735662D02*
X107220187Y-34830900D01*
X107220187Y-34830900D02*
X107220187Y-35068995D01*
X107220187Y-35068995D02*
X107172568Y-35164233D01*
X107172568Y-35164233D02*
X107124949Y-35211852D01*
X107124949Y-35211852D02*
X107029711Y-35259471D01*
X107029711Y-35259471D02*
X106934473Y-35259471D01*
X106934473Y-35259471D02*
X106791616Y-35211852D01*
X106791616Y-35211852D02*
X106220187Y-34640424D01*
X106220187Y-34640424D02*
X106220187Y-35259471D01*
X109902577Y-31245997D02*
X110140672Y-31245997D01*
X110045434Y-31484092D02*
X110140672Y-31245997D01*
X110140672Y-31245997D02*
X110045434Y-31007902D01*
X110331148Y-31388854D02*
X110140672Y-31245997D01*
X110140672Y-31245997D02*
X110331148Y-31103140D01*
X110992938Y-31245998D02*
X110754843Y-31245998D01*
X110850081Y-31007903D02*
X110754843Y-31245998D01*
X110754843Y-31245998D02*
X110850081Y-31484093D01*
X110564367Y-31103141D02*
X110754843Y-31245998D01*
X110754843Y-31245998D02*
X110564367Y-31388855D01*
%TO.C,U3*%
D11*
X51340000Y-33440000D02*
X53160000Y-33440000D01*
X51340000Y-33490000D02*
X51340000Y-33440000D01*
X51340000Y-36560000D02*
X51340000Y-36510000D01*
X53160000Y-33440000D02*
X53160000Y-33490000D01*
X53160000Y-34610000D02*
X53160000Y-35390000D01*
X53160000Y-36510000D02*
X53160000Y-36560000D01*
X53160000Y-36560000D02*
X51340000Y-36560000D01*
X50800000Y-33490000D02*
X50560000Y-33160000D01*
X51040000Y-33160000D01*
X50800000Y-33490000D01*
G36*
X50800000Y-33490000D02*
G01*
X50560000Y-33160000D01*
X51040000Y-33160000D01*
X50800000Y-33490000D01*
G37*
%TO.C,C5*%
X111090000Y-33788748D02*
X111090000Y-35211252D01*
X112910000Y-33788748D02*
X112910000Y-35211252D01*
%TO.C,C4*%
X136226248Y-36090000D02*
X137648752Y-36090000D01*
X136226248Y-37910000D02*
X137648752Y-37910000D01*
%TO.C,C2*%
X98288748Y-36090000D02*
X99711252Y-36090000D01*
X98288748Y-37910000D02*
X99711252Y-37910000D01*
%TO.C,J1*%
X43840000Y-35190000D02*
X45000000Y-35190000D01*
X43840000Y-36000000D02*
X43840000Y-35190000D01*
X43840000Y-36810000D02*
X43840000Y-38015000D01*
X43840000Y-36810000D02*
X44333292Y-36810000D01*
X43840000Y-38015000D02*
X44682077Y-38015000D01*
X45317923Y-38015000D02*
X46160000Y-38015000D01*
X45666708Y-36810000D02*
X46160000Y-36810000D01*
X46160000Y-36810000D02*
X46160000Y-38015000D01*
%TO.C,C1*%
X79288748Y-36090000D02*
X80711252Y-36090000D01*
X79288748Y-37910000D02*
X80711252Y-37910000D01*
%TO.C,C3*%
X117351248Y-36090000D02*
X118773752Y-36090000D01*
X117351248Y-37910000D02*
X118773752Y-37910000D01*
%TO.C,C7*%
X60711252Y-34590000D02*
X59288748Y-34590000D01*
X60711252Y-36410000D02*
X59288748Y-36410000D01*
%TO.C,U1*%
D12*
X45716100Y-53801272D02*
X45716100Y-45806000D01*
X46216100Y-45306000D02*
X47226100Y-45306000D01*
D13*
X47226100Y-42825000D02*
X47226100Y-56795000D01*
D12*
X47226100Y-54305000D02*
X46215828Y-54301272D01*
D13*
X66276100Y-40920000D02*
X49131100Y-40920000D01*
X66276100Y-58700000D02*
X49131100Y-58700000D01*
X68181100Y-56795000D02*
X68181100Y-42825000D01*
D12*
X45716100Y-45806000D02*
G75*
G02*
X46216100Y-45306000I500100J-100D01*
G01*
X46215828Y-54301272D02*
G75*
G02*
X45716098Y-53801272I292J500022D01*
G01*
D13*
X47226100Y-42825000D02*
G75*
G02*
X49131100Y-40920000I1905050J-50D01*
G01*
X49127100Y-58700000D02*
G75*
G02*
X47222100Y-56795000I1J1905001D01*
G01*
X66276100Y-40920000D02*
G75*
G02*
X68181100Y-42825000I0J-1905000D01*
G01*
X68181100Y-56795000D02*
G75*
G02*
X66276100Y-58700000I-1905000J0D01*
G01*
D14*
X47894100Y-58910000D02*
G75*
G02*
X47390100Y-58910000I-252000J0D01*
G01*
X47390100Y-58910000D02*
G75*
G02*
X47894100Y-58910000I252000J0D01*
G01*
X48611100Y-57636000D02*
G75*
G02*
X48107100Y-57636000I-252000J0D01*
G01*
X48107100Y-57636000D02*
G75*
G02*
X48611100Y-57636000I252000J0D01*
G01*
%TO.C,C6*%
D11*
X51288748Y-37090000D02*
X52711252Y-37090000D01*
X51288748Y-38910000D02*
X52711252Y-38910000D01*
%TO.C,U2*%
D15*
X103995307Y-32445007D02*
X103995307Y-36454889D01*
X109354707Y-36454889D02*
X109354707Y-32445007D01*
D16*
G36*
X105240542Y-38609947D02*
G01*
X104859542Y-38609947D01*
X104859542Y-38355947D01*
X105240542Y-38355947D01*
X105240542Y-38609947D01*
G37*
%TD*%
M02*
