%TF.GenerationSoftware,KiCad,Pcbnew,10.0.6*%
%TF.CreationDate,2026-09-24T13:22:47+02:00*%
%TF.ProjectId,keith,6b656974-682e-46b6-9963-61645f706362,rev?*%
%TF.SameCoordinates,Original*%
%TF.FileFunction,Copper,L1,Top*%
%TF.FilePolarity,Positive*%
%FSLAX46Y46*%
G04 Gerber Fmt 4.6, Leading zero omitted, Abs format (unit mm)*
G04 Created by KiCad (PCBNEW 10.0.6) date 2026-09-24 13:22:47*
%MOMM*%
%LPD*%
G01*
G04 APERTURE LIST*
G04 Aperture macros list*
%AMRoundRect*
0 Rectangle with rounded corners*
0 $1 Rounding radius*
0 $2 $3 $4 $5 $6 $7 $8 $9 X,Y pos of 4 corners*
0 Add a 4 corners polygon primitive as box body*
4,1,4,$2,$3,$4,$5,$6,$7,$8,$9,$2,$3,0*
0 Add four circle primitives for the rounded corners*
1,1,$1+$1,$2,$3*
1,1,$1+$1,$4,$5*
1,1,$1+$1,$6,$7*
1,1,$1+$1,$8,$9*
0 Add four rect primitives between the rounded corners*
20,1,$1+$1,$2,$3,$4,$5,0*
20,1,$1+$1,$4,$5,$6,$7,0*
20,1,$1+$1,$6,$7,$8,$9,0*
20,1,$1+$1,$8,$9,$2,$3,0*%
G04 Aperture macros list end*
%TA.AperFunction,EtchedComponent*%
%ADD10C,0.120000*%
%TD*%
%TA.AperFunction,SMDPad,CuDef*%
%ADD11RoundRect,0.150000X-0.512500X-0.150000X0.512500X-0.150000X0.512500X0.150000X-0.512500X0.150000X0*%
%TD*%
%TA.AperFunction,SMDPad,CuDef*%
%ADD12RoundRect,0.250000X-0.650000X0.412500X-0.650000X-0.412500X0.650000X-0.412500X0.650000X0.412500X0*%
%TD*%
%TA.AperFunction,SMDPad,CuDef*%
%ADD13RoundRect,0.250000X-0.412500X-0.650000X0.412500X-0.650000X0.412500X0.650000X-0.412500X0.650000X0*%
%TD*%
%TA.AperFunction,ComponentPad*%
%ADD14R,1.000000X1.000000*%
%TD*%
%TA.AperFunction,ComponentPad*%
%ADD15C,1.000000*%
%TD*%
%TA.AperFunction,ComponentPad*%
%ADD16C,0.600000*%
%TD*%
%TA.AperFunction,SMDPad,CuDef*%
%ADD17RoundRect,0.030000X0.030000X-0.450000X0.030000X0.450000X-0.030000X0.450000X-0.030000X-0.450000X0*%
%TD*%
%TA.AperFunction,ComponentPad*%
%ADD18C,2.300000*%
%TD*%
%TA.AperFunction,SMDPad,CuDef*%
%ADD19RoundRect,0.250000X0.412500X0.650000X-0.412500X0.650000X-0.412500X-0.650000X0.412500X-0.650000X0*%
%TD*%
%TA.AperFunction,SMDPad,CuDef*%
%ADD20RoundRect,0.500000X0.500000X-0.875000X0.500000X0.875000X-0.500000X0.875000X-0.500000X-0.875000X0*%
%TD*%
%TA.AperFunction,SMDPad,CuDef*%
%ADD21C,1.700000*%
%TD*%
%TA.AperFunction,SMDPad,CuDef*%
%ADD22RoundRect,0.275000X-0.275000X0.975000X-0.275000X-0.975000X0.275000X-0.975000X0.275000X0.975000X0*%
%TD*%
%TA.AperFunction,SMDPad,CuDef*%
%ADD23RoundRect,0.275000X-0.975000X-0.275000X0.975000X-0.275000X0.975000X0.275000X-0.975000X0.275000X0*%
%TD*%
%TA.AperFunction,SMDPad,CuDef*%
%ADD24R,0.354800X1.404099*%
%TD*%
%TA.AperFunction,ViaPad*%
%ADD25C,0.600000*%
%TD*%
%TA.AperFunction,Conductor*%
%ADD26C,0.200000*%
%TD*%
%TA.AperFunction,Conductor*%
%ADD27C,1.000000*%
%TD*%
G04 APERTURE END LIST*
%TO.C,L1*%
D10*
X79080000Y-40100000D02*
X79080000Y-39480000D01*
X80000000Y-40100000D02*
X79080000Y-40100000D01*
X80000000Y-42500000D02*
X80000000Y-43340000D01*
X80000000Y-40100000D02*
G75*
G02*
X80000000Y-58100000I0J-9000000D01*
G01*
X80000000Y-40340000D02*
G75*
G02*
X80000000Y-57860000I0J-8760000D01*
G01*
X80000000Y-40580000D02*
G75*
G02*
X80000000Y-57620000I0J-8520000D01*
G01*
X80000000Y-40820000D02*
G75*
G02*
X80000000Y-57380000I0J-8280000D01*
G01*
X80000000Y-41060000D02*
G75*
G02*
X80000000Y-57140000I0J-8040000D01*
G01*
X80000000Y-41300000D02*
G75*
G02*
X80000000Y-56900000I0J-7800000D01*
G01*
X80000000Y-41540000D02*
G75*
G02*
X80000000Y-56660000I0J-7560000D01*
G01*
X80000000Y-41780000D02*
G75*
G02*
X80000000Y-56420000I0J-7320000D01*
G01*
X80000000Y-42020000D02*
G75*
G02*
X80000000Y-56180000I0J-7080000D01*
G01*
X80000000Y-42260000D02*
G75*
G02*
X80000000Y-55940000I0J-6840000D01*
G01*
X80000000Y-55940000D02*
G75*
G02*
X80000000Y-42500000I0J6720000D01*
G01*
X80000000Y-56180000D02*
G75*
G02*
X80000000Y-42260000I0J6960000D01*
G01*
X80000000Y-56420000D02*
G75*
G02*
X80000000Y-42020000I0J7200000D01*
G01*
X80000000Y-56660000D02*
G75*
G02*
X80000000Y-41780000I0J7440000D01*
G01*
X80000000Y-56900000D02*
G75*
G02*
X80000000Y-41540000I0J7680000D01*
G01*
X80000000Y-57140000D02*
G75*
G02*
X80000000Y-41300000I0J7920000D01*
G01*
X80000000Y-57380000D02*
G75*
G02*
X80000000Y-41060000I0J8160000D01*
G01*
X80000000Y-57620000D02*
G75*
G02*
X80000000Y-40820000I0J8400000D01*
G01*
X80000000Y-57860000D02*
G75*
G02*
X80000000Y-40580000I0J8640000D01*
G01*
X80000000Y-58100000D02*
G75*
G02*
X80000000Y-40340000I0J8880000D01*
G01*
%TO.C,L4*%
X136230000Y-40100000D02*
X136230000Y-39480000D01*
X137150000Y-40100000D02*
X136230000Y-40100000D01*
X137150000Y-42500000D02*
X137150000Y-43340000D01*
X137150000Y-40100000D02*
G75*
G02*
X137150000Y-58100000I0J-9000000D01*
G01*
X137150000Y-40340000D02*
G75*
G02*
X137150000Y-57860000I0J-8760000D01*
G01*
X137150000Y-40580000D02*
G75*
G02*
X137150000Y-57620000I0J-8520000D01*
G01*
X137150000Y-40820000D02*
G75*
G02*
X137150000Y-57380000I0J-8280000D01*
G01*
X137150000Y-41060000D02*
G75*
G02*
X137150000Y-57140000I0J-8040000D01*
G01*
X137150000Y-41300000D02*
G75*
G02*
X137150000Y-56900000I0J-7800000D01*
G01*
X137150000Y-41540000D02*
G75*
G02*
X137150000Y-56660000I0J-7560000D01*
G01*
X137150000Y-41780000D02*
G75*
G02*
X137150000Y-56420000I0J-7320000D01*
G01*
X137150000Y-42020000D02*
G75*
G02*
X137150000Y-56180000I0J-7080000D01*
G01*
X137150000Y-42260000D02*
G75*
G02*
X137150000Y-55940000I0J-6840000D01*
G01*
X137150000Y-55940000D02*
G75*
G02*
X137150000Y-42500000I0J6720000D01*
G01*
X137150000Y-56180000D02*
G75*
G02*
X137150000Y-42260000I0J6960000D01*
G01*
X137150000Y-56420000D02*
G75*
G02*
X137150000Y-42020000I0J7200000D01*
G01*
X137150000Y-56660000D02*
G75*
G02*
X137150000Y-41780000I0J7440000D01*
G01*
X137150000Y-56900000D02*
G75*
G02*
X137150000Y-41540000I0J7680000D01*
G01*
X137150000Y-57140000D02*
G75*
G02*
X137150000Y-41300000I0J7920000D01*
G01*
X137150000Y-57380000D02*
G75*
G02*
X137150000Y-41060000I0J8160000D01*
G01*
X137150000Y-57620000D02*
G75*
G02*
X137150000Y-40820000I0J8400000D01*
G01*
X137150000Y-57860000D02*
G75*
G02*
X137150000Y-40580000I0J8640000D01*
G01*
X137150000Y-58100000D02*
G75*
G02*
X137150000Y-40340000I0J8880000D01*
G01*
%TO.C,L2*%
X98130000Y-40100000D02*
X98130000Y-39480000D01*
X99050000Y-40100000D02*
X98130000Y-40100000D01*
X99050000Y-42500000D02*
X99050000Y-43340000D01*
X99050000Y-40100000D02*
G75*
G02*
X99050000Y-58100000I0J-9000000D01*
G01*
X99050000Y-40340000D02*
G75*
G02*
X99050000Y-57860000I0J-8760000D01*
G01*
X99050000Y-40580000D02*
G75*
G02*
X99050000Y-57620000I0J-8520000D01*
G01*
X99050000Y-40820000D02*
G75*
G02*
X99050000Y-57380000I0J-8280000D01*
G01*
X99050000Y-41060000D02*
G75*
G02*
X99050000Y-57140000I0J-8040000D01*
G01*
X99050000Y-41300000D02*
G75*
G02*
X99050000Y-56900000I0J-7800000D01*
G01*
X99050000Y-41540000D02*
G75*
G02*
X99050000Y-56660000I0J-7560000D01*
G01*
X99050000Y-41780000D02*
G75*
G02*
X99050000Y-56420000I0J-7320000D01*
G01*
X99050000Y-42020000D02*
G75*
G02*
X99050000Y-56180000I0J-7080000D01*
G01*
X99050000Y-42260000D02*
G75*
G02*
X99050000Y-55940000I0J-6840000D01*
G01*
X99050000Y-55940000D02*
G75*
G02*
X99050000Y-42500000I0J6720000D01*
G01*
X99050000Y-56180000D02*
G75*
G02*
X99050000Y-42260000I0J6960000D01*
G01*
X99050000Y-56420000D02*
G75*
G02*
X99050000Y-42020000I0J7200000D01*
G01*
X99050000Y-56660000D02*
G75*
G02*
X99050000Y-41780000I0J7440000D01*
G01*
X99050000Y-56900000D02*
G75*
G02*
X99050000Y-41540000I0J7680000D01*
G01*
X99050000Y-57140000D02*
G75*
G02*
X99050000Y-41300000I0J7920000D01*
G01*
X99050000Y-57380000D02*
G75*
G02*
X99050000Y-41060000I0J8160000D01*
G01*
X99050000Y-57620000D02*
G75*
G02*
X99050000Y-40820000I0J8400000D01*
G01*
X99050000Y-57860000D02*
G75*
G02*
X99050000Y-40580000I0J8640000D01*
G01*
X99050000Y-58100000D02*
G75*
G02*
X99050000Y-40340000I0J8880000D01*
G01*
%TO.C,L3*%
X117180000Y-40100000D02*
X117180000Y-39480000D01*
X118100000Y-40100000D02*
X117180000Y-40100000D01*
X118100000Y-42500000D02*
X118100000Y-43340000D01*
X118100000Y-40100000D02*
G75*
G02*
X118100000Y-58100000I0J-9000000D01*
G01*
X118100000Y-40340000D02*
G75*
G02*
X118100000Y-57860000I0J-8760000D01*
G01*
X118100000Y-40580000D02*
G75*
G02*
X118100000Y-57620000I0J-8520000D01*
G01*
X118100000Y-40820000D02*
G75*
G02*
X118100000Y-57380000I0J-8280000D01*
G01*
X118100000Y-41060000D02*
G75*
G02*
X118100000Y-57140000I0J-8040000D01*
G01*
X118100000Y-41300000D02*
G75*
G02*
X118100000Y-56900000I0J-7800000D01*
G01*
X118100000Y-41540000D02*
G75*
G02*
X118100000Y-56660000I0J-7560000D01*
G01*
X118100000Y-41780000D02*
G75*
G02*
X118100000Y-56420000I0J-7320000D01*
G01*
X118100000Y-42020000D02*
G75*
G02*
X118100000Y-56180000I0J-7080000D01*
G01*
X118100000Y-42260000D02*
G75*
G02*
X118100000Y-55940000I0J-6840000D01*
G01*
X118100000Y-55940000D02*
G75*
G02*
X118100000Y-42500000I0J6720000D01*
G01*
X118100000Y-56180000D02*
G75*
G02*
X118100000Y-42260000I0J6960000D01*
G01*
X118100000Y-56420000D02*
G75*
G02*
X118100000Y-42020000I0J7200000D01*
G01*
X118100000Y-56660000D02*
G75*
G02*
X118100000Y-41780000I0J7440000D01*
G01*
X118100000Y-56900000D02*
G75*
G02*
X118100000Y-41540000I0J7680000D01*
G01*
X118100000Y-57140000D02*
G75*
G02*
X118100000Y-41300000I0J7920000D01*
G01*
X118100000Y-57380000D02*
G75*
G02*
X118100000Y-41060000I0J8160000D01*
G01*
X118100000Y-57620000D02*
G75*
G02*
X118100000Y-40820000I0J8400000D01*
G01*
X118100000Y-57860000D02*
G75*
G02*
X118100000Y-40580000I0J8640000D01*
G01*
X118100000Y-58100000D02*
G75*
G02*
X118100000Y-40340000I0J8880000D01*
G01*
%TD*%
D11*
%TO.P,U3,1,IN_1*%
%TO.N,Net-(U1-3V3_OUT)*%
X51112500Y-34050000D03*
%TO.P,U3,2,GND_2*%
%TO.N,GND*%
X51112500Y-35000000D03*
%TO.P,U3,3,EN_3*%
%TO.N,Net-(U1-3V3_OUT)*%
X51112500Y-35950000D03*
%TO.P,U3,4,NC_4*%
%TO.N,unconnected-(U3-NC-Pad4)*%
X53387500Y-35950000D03*
%TO.P,U3,5,OUT_5*%
%TO.N,Net-(U2-LPWRB)*%
X53387500Y-34050000D03*
%TD*%
D12*
%TO.P,C5,1*%
%TO.N,Net-(U2-COM)*%
X112000000Y-32937500D03*
%TO.P,C5,2*%
%TO.N,GND*%
X112000000Y-36062500D03*
%TD*%
D13*
%TO.P,C4,1*%
%TO.N,Net-(U2-IN3)*%
X135375000Y-37000000D03*
%TO.P,C4,2*%
%TO.N,Net-(U2-COM)*%
X138500000Y-37000000D03*
%TD*%
%TO.P,C2,1*%
%TO.N,Net-(U2-IN1)*%
X97437500Y-37000000D03*
%TO.P,C2,2*%
%TO.N,Net-(U2-COM)*%
X100562500Y-37000000D03*
%TD*%
D14*
%TO.P,J1,1,Pin_1_1*%
%TO.N,Net-(J1-Pin_1)*%
X45000000Y-36000000D03*
D15*
%TO.P,J1,2,Pin_2_2*%
%TO.N,GND*%
X45000000Y-37270000D03*
%TD*%
D16*
%TO.P,L1,0,0_0*%
%TO.N,unconnected-(L1-Pad0)*%
X80000000Y-43340000D03*
D17*
%TO.P,L1,1,1_1*%
%TO.N,Net-(U2-IN0)*%
X79080000Y-39120000D03*
%TD*%
D18*
%TO.P,SW1,1,1_1*%
%TO.N,GND*%
X76190000Y-47460000D03*
%TO.P,SW1,2,2_2*%
%TO.N,Net-(U1-D0)*%
X82540000Y-44920000D03*
%TD*%
%TO.P,SW4,1,1_1*%
%TO.N,GND*%
X133340000Y-47460000D03*
%TO.P,SW4,2,2_2*%
%TO.N,Net-(U1-D3)*%
X139690000Y-44920000D03*
%TD*%
%TO.P,SW3,1,1_1*%
%TO.N,GND*%
X114290000Y-47460000D03*
%TO.P,SW3,2,2_2*%
%TO.N,Net-(U1-D2)*%
X120640000Y-44920000D03*
%TD*%
D16*
%TO.P,L4,0,0_0*%
%TO.N,unconnected-(L4-Pad0)*%
X137150000Y-43340000D03*
D17*
%TO.P,L4,1,1_1*%
%TO.N,Net-(U2-IN3)*%
X136230000Y-39120000D03*
%TD*%
D13*
%TO.P,C1,1*%
%TO.N,Net-(U2-IN0)*%
X78437500Y-37000000D03*
%TO.P,C1,2*%
%TO.N,Net-(U2-COM)*%
X81562500Y-37000000D03*
%TD*%
%TO.P,C3,1*%
%TO.N,Net-(U2-IN2)*%
X116500000Y-37000000D03*
%TO.P,C3,2*%
%TO.N,Net-(U2-COM)*%
X119625000Y-37000000D03*
%TD*%
D19*
%TO.P,C7,1*%
%TO.N,GND*%
X61562500Y-35500000D03*
%TO.P,C7,2*%
%TO.N,Net-(U2-LPWRB)*%
X58437500Y-35500000D03*
%TD*%
D18*
%TO.P,SW2,1,1_1*%
%TO.N,GND*%
X95240000Y-47460000D03*
%TO.P,SW2,2,2_2*%
%TO.N,Net-(U1-D1)*%
X101590000Y-44920000D03*
%TD*%
D16*
%TO.P,L2,0,0_0*%
%TO.N,unconnected-(L2-Pad0)*%
X99050000Y-43340000D03*
D17*
%TO.P,L2,1,1_1*%
%TO.N,Net-(U2-IN1)*%
X98130000Y-39120000D03*
%TD*%
D20*
%TO.P,U1,1,D0_1*%
%TO.N,Net-(U1-D0)*%
X50143100Y-57865000D03*
%TO.P,U1,2,D1_2*%
%TO.N,Net-(U1-D1)*%
X52683100Y-57865000D03*
%TO.P,U1,3,D2_3*%
%TO.N,Net-(U1-D2)*%
X55223100Y-57865000D03*
%TO.P,U1,4,D3_4*%
%TO.N,Net-(U1-D3)*%
X57763100Y-57865000D03*
%TO.P,U1,5,D4_5*%
%TO.N,Net-(U1-D4)*%
X60303100Y-57865000D03*
%TO.P,U1,6,D5_6*%
%TO.N,Net-(U1-D5)*%
X62843100Y-57865000D03*
%TO.P,U1,7,D6_7*%
%TO.N,unconnected-(U1-D6-Pad7)*%
X65383100Y-57865000D03*
%TO.P,U1,8,D7_8*%
%TO.N,unconnected-(U1-D7-Pad8)*%
X65383100Y-41700000D03*
%TO.P,U1,9,D8_9*%
%TO.N,unconnected-(U1-D8-Pad9)*%
X62843100Y-41700000D03*
%TO.P,U1,10,D9_10*%
%TO.N,unconnected-(U1-D9-Pad10)*%
X60303100Y-41700000D03*
%TO.P,U1,11,D10_11*%
%TO.N,unconnected-(U1-D10-Pad11)*%
X57763100Y-41700000D03*
%TO.P,U1,12,3V3_OUT_12*%
%TO.N,Net-(U1-3V3_OUT)*%
X55223100Y-41700000D03*
%TO.P,U1,13,GND_13*%
%TO.N,GND*%
X52683100Y-41700000D03*
%TO.P,U1,14,VBUS_14*%
%TO.N,unconnected-(U1-VBUS-Pad14)*%
X50143100Y-41700000D03*
D21*
%TO.P,U1,15,SWDIO_15*%
%TO.N,unconnected-(U1-SWDIO-Pad15)*%
X49194600Y-51080000D03*
%TO.P,U1,16,SWCLK_16*%
%TO.N,unconnected-(U1-SWCLK-Pad16)*%
X49194600Y-48540000D03*
%TO.P,U1,17,EN_17*%
%TO.N,unconnected-(U1-EN-Pad17)*%
X51734600Y-51080000D03*
%TO.P,U1,18,GND_18*%
%TO.N,GND*%
X51734600Y-48540000D03*
D22*
%TO.P,U1,19,VBAT_19*%
%TO.N,Net-(J1-Pin_1)*%
X57449600Y-54255000D03*
%TO.P,U1,20,GND_20*%
%TO.N,GND*%
X55544600Y-54255000D03*
D23*
%TO.P,U1,21,NFC1_21*%
%TO.N,unconnected-(U1-NFC1-Pad21)*%
X67000000Y-46000000D03*
%TO.P,U1,22,NFC2_22*%
%TO.N,unconnected-(U1-NFC2-Pad22)*%
X67000000Y-44095000D03*
%TD*%
D13*
%TO.P,C6,1*%
%TO.N,GND*%
X50437500Y-38000000D03*
%TO.P,C6,2*%
%TO.N,Net-(U1-3V3_OUT)*%
X53562500Y-38000000D03*
%TD*%
D16*
%TO.P,L3,0,0_0*%
%TO.N,unconnected-(L3-Pad0)*%
X118100000Y-43340000D03*
D17*
%TO.P,L3,1,1_1*%
%TO.N,Net-(U2-IN2)*%
X117180000Y-39120000D03*
%TD*%
D24*
%TO.P,U2,1,IN0_1*%
%TO.N,Net-(U2-IN0)*%
X108949958Y-31500000D03*
%TO.P,U2,2,GND_2*%
%TO.N,GND*%
X108299972Y-31500000D03*
%TO.P,U2,3,COM_3*%
%TO.N,Net-(U2-COM)*%
X107649986Y-31500000D03*
%TO.P,U2,4,VDD_4*%
%TO.N,Net-(U2-LPWRB)*%
X107000000Y-31500000D03*
%TO.P,U2,5,LPWRB_5*%
X106350014Y-31500000D03*
%TO.P,U2,6,OUT0_6*%
%TO.N,unconnected-(U2-OUT0-Pad6)*%
X105700028Y-31500000D03*
%TO.P,U2,7,IN3_7*%
%TO.N,Net-(U2-IN3)*%
X105050042Y-31500000D03*
%TO.P,U2,8,IN2_8*%
%TO.N,Net-(U2-IN2)*%
X104400056Y-31500000D03*
%TO.P,U2,9,IN1_9*%
%TO.N,Net-(U2-IN1)*%
X104400056Y-37399896D03*
%TO.P,U2,10,INTB_10*%
%TO.N,unconnected-(U2-INTB-Pad10)*%
X105050042Y-37399896D03*
%TO.P,U2,11,SCL_11*%
%TO.N,Net-(U1-D5)*%
X105700028Y-37399896D03*
%TO.P,U2,12,OUT3_12*%
%TO.N,unconnected-(U2-OUT3-Pad12)*%
X106350014Y-37399896D03*
%TO.P,U2,13,OUT2_13*%
%TO.N,unconnected-(U2-OUT2-Pad13)*%
X107000000Y-37399896D03*
%TO.P,U2,14,SDA_14*%
%TO.N,Net-(U1-D4)*%
X107649986Y-37399896D03*
%TO.P,U2,15,OUT1_15*%
%TO.N,unconnected-(U2-OUT1-Pad15)*%
X108299972Y-37399896D03*
%TO.P,U2,16,SCL_16*%
%TO.N,Net-(U1-D5)*%
X108949958Y-37399896D03*
%TD*%
D25*
%TO.N,Net-(U2-COM)*%
X119000000Y-39200000D03*
X80920000Y-39200000D03*
X99970000Y-39200000D03*
X138070000Y-39200000D03*
X107500000Y-33000000D03*
%TO.N,Net-(U2-IN2)*%
X113500000Y-31000000D03*
X112500000Y-29497951D03*
%TO.N,GND*%
X51718750Y-39281250D03*
X63750000Y-35500000D03*
X110250000Y-33250000D03*
X54000000Y-53000000D03*
X108600000Y-34500000D03*
X112000000Y-38000000D03*
X52468750Y-40031250D03*
X52250000Y-35000000D03*
%TO.N,Net-(U1-D0)*%
X50000000Y-55000000D03*
%TO.N,Net-(U1-D1)*%
X53000000Y-55000000D03*
%TO.N,Net-(U1-D2)*%
X60000000Y-55000000D03*
%TO.N,Net-(U1-D3)*%
X61000000Y-56000000D03*
%TO.N,Net-(U1-D4)*%
X102500000Y-34750000D03*
X60250000Y-61000000D03*
%TO.N,Net-(U1-D5)*%
X63000000Y-60250000D03*
X102500000Y-36250000D03*
%TD*%
%TO.N,Net-(U2-IN0)*%
D26*
X81287500Y-34150000D02*
X105715686Y-34150000D01*
X78437500Y-37000000D02*
X81287500Y-34150000D01*
X110250000Y-35250000D02*
X108949958Y-33949958D01*
X105715686Y-34150000D02*
X106815686Y-35250000D01*
X108949958Y-33949958D02*
X108949958Y-31500000D01*
X79080000Y-37642500D02*
X78437500Y-37000000D01*
X79080000Y-39200000D02*
X79080000Y-37642500D01*
X106815686Y-35250000D02*
X110250000Y-35250000D01*
%TO.N,Net-(U2-COM)*%
X138070000Y-39200000D02*
X138070000Y-37430000D01*
X80920000Y-37642500D02*
X81562500Y-37000000D01*
X99970000Y-37592500D02*
X100562500Y-37000000D01*
X119625000Y-38575000D02*
X119625000Y-37000000D01*
X107649986Y-30827414D02*
X107649986Y-31500000D01*
X109560451Y-30497951D02*
X107979449Y-30497951D01*
X107700000Y-32600000D02*
X107649986Y-32549986D01*
X138070000Y-37430000D02*
X138500000Y-37000000D01*
X107979449Y-30497951D02*
X107649986Y-30827414D01*
X107700000Y-32800000D02*
X107700000Y-32600000D01*
X99970000Y-39200000D02*
X99970000Y-37592500D01*
X107649986Y-32549986D02*
X107649986Y-31500000D01*
X80920000Y-39200000D02*
X80920000Y-37642500D01*
X112000000Y-32937500D02*
X109560451Y-30497951D01*
X119000000Y-39200000D02*
X119625000Y-38575000D01*
X107500000Y-33000000D02*
X107700000Y-32800000D01*
%TO.N,Net-(U2-IN1)*%
X98130000Y-37692500D02*
X97437500Y-37000000D01*
X104500000Y-37299952D02*
X104400056Y-37399896D01*
X98937500Y-35500000D02*
X104500000Y-35500000D01*
X104500000Y-35500000D02*
X104500000Y-37299952D01*
X97437500Y-37000000D02*
X98937500Y-35500000D01*
X98130000Y-39200000D02*
X98130000Y-37692500D01*
%TO.N,Net-(U2-IN2)*%
X105500056Y-29497951D02*
X104400056Y-30597951D01*
X112500000Y-29497951D02*
X105500056Y-29497951D01*
X116500000Y-37000000D02*
X116500000Y-34000000D01*
X117180000Y-37680000D02*
X116500000Y-37000000D01*
X116500000Y-34000000D02*
X113500000Y-31000000D01*
X104400056Y-30597951D02*
X104400056Y-31500000D01*
X117180000Y-39200000D02*
X117180000Y-37680000D01*
%TO.N,Net-(U2-IN3)*%
X136230000Y-39200000D02*
X136230000Y-37855000D01*
X105050042Y-30597951D02*
X105050042Y-31500000D01*
X135375000Y-37000000D02*
X128472951Y-30097951D01*
X128472951Y-30097951D02*
X105550042Y-30097951D01*
X136230000Y-37855000D02*
X135375000Y-37000000D01*
X105550042Y-30097951D02*
X105050042Y-30597951D01*
%TO.N,GND*%
X108500000Y-33000000D02*
X108299972Y-32799972D01*
D27*
X55544600Y-52350000D02*
X55544600Y-54255000D01*
X61562500Y-35500000D02*
X63750000Y-35500000D01*
X51718750Y-39281250D02*
X52468750Y-40031250D01*
X55544600Y-54255000D02*
X54289600Y-53000000D01*
X54000000Y-53000000D02*
X53750000Y-53000000D01*
D26*
X108500000Y-33000000D02*
X108500000Y-34400000D01*
X108299972Y-31500000D02*
X108299972Y-32799972D01*
D27*
X51734600Y-48540000D02*
X55544600Y-52350000D01*
X52468750Y-40031250D02*
X52683100Y-40245600D01*
X52683100Y-40245600D02*
X52683100Y-41700000D01*
X112000000Y-36062500D02*
X112000000Y-38000000D01*
D26*
X108500000Y-34400000D02*
X108600000Y-34500000D01*
X51112500Y-35000000D02*
X52250000Y-35000000D01*
D27*
X54289600Y-53000000D02*
X54000000Y-53000000D01*
X50437500Y-38000000D02*
X51718750Y-39281250D01*
%TO.N,Net-(U1-3V3_OUT)*%
X55223100Y-40325000D02*
X53562500Y-38664400D01*
X51562500Y-36000000D02*
X49000000Y-36000000D01*
X49000000Y-34000000D02*
X51112500Y-34000000D01*
X49000000Y-36000000D02*
X48000000Y-35000000D01*
X48000000Y-35000000D02*
X49000000Y-34000000D01*
X53562500Y-38000000D02*
X51562500Y-36000000D01*
X55223100Y-41700000D02*
X55223100Y-40325000D01*
X53562500Y-38664400D02*
X53562500Y-38000000D01*
%TO.N,Net-(U2-LPWRB)*%
X56000000Y-35200000D02*
X58137500Y-35200000D01*
X53387500Y-34050000D02*
X54850000Y-34050000D01*
X58137500Y-35200000D02*
X58437500Y-35500000D01*
X58437500Y-35500000D02*
X61035451Y-32902049D01*
X61035451Y-32902049D02*
X106350014Y-32902049D01*
D26*
X106350014Y-31500000D02*
X106350014Y-32902049D01*
D27*
X54850000Y-34050000D02*
X56000000Y-35200000D01*
D26*
X107000000Y-32252063D02*
X106350014Y-32902049D01*
X107000000Y-31500000D02*
X107000000Y-32252063D01*
%TO.N,Net-(J1-Pin_1)*%
D27*
X52353772Y-46990000D02*
X52376632Y-46990000D01*
X57449600Y-52062968D02*
X57449600Y-54255000D01*
X46000000Y-36000000D02*
X48443100Y-38443100D01*
X48443100Y-38443100D02*
X48443100Y-43079328D01*
X52376632Y-46990000D02*
X57449600Y-52062968D01*
X45000000Y-36000000D02*
X46000000Y-36000000D01*
X48443100Y-43079328D02*
X52353772Y-46990000D01*
%TO.N,Net-(U1-D0)*%
D26*
X50143100Y-55143100D02*
X50143100Y-57865000D01*
X50000000Y-55000000D02*
X50143100Y-55143100D01*
%TO.N,Net-(U1-D1)*%
X52683100Y-55316900D02*
X52683100Y-57865000D01*
X53000000Y-55000000D02*
X52683100Y-55316900D01*
%TO.N,Net-(U1-D2)*%
X60000000Y-55000000D02*
X58810000Y-56190000D01*
X58810000Y-56190000D02*
X56898100Y-56190000D01*
X56898100Y-56190000D02*
X55223100Y-57865000D01*
%TO.N,Net-(U1-D3)*%
X59628100Y-56000000D02*
X57763100Y-57865000D01*
X61000000Y-56000000D02*
X59628100Y-56000000D01*
%TO.N,Net-(U1-D4)*%
X60303100Y-60946900D02*
X60303100Y-57865000D01*
X107649986Y-37399896D02*
X107649986Y-36649986D01*
X105750000Y-34750000D02*
X102500000Y-34750000D01*
X60250000Y-61000000D02*
X60303100Y-60946900D01*
X107649986Y-36649986D02*
X105750000Y-34750000D01*
%TO.N,Net-(U1-D5)*%
X63000000Y-59500000D02*
X62843100Y-59343100D01*
X63000000Y-60250000D02*
X63000000Y-59500000D01*
X108949958Y-38699958D02*
X108949958Y-37399896D01*
X102500000Y-36979289D02*
X102500000Y-36250000D01*
X62843100Y-59343100D02*
X62843100Y-57865000D01*
X106250000Y-38750000D02*
X106500000Y-38750000D01*
X104270711Y-38750000D02*
X102500000Y-36979289D01*
X106500000Y-38750000D02*
X109000000Y-38750000D01*
X106500000Y-38750000D02*
X104270711Y-38750000D01*
X105700028Y-37399896D02*
X105700028Y-38200028D01*
X109000000Y-38750000D02*
X108949958Y-38699958D01*
X105700028Y-38200028D02*
X106250000Y-38750000D01*
%TD*%
M02*
